%TF.GenerationSoftware,KiCad,Pcbnew,9.0.7*%
%TF.CreationDate,2026-04-20T11:40:19+02:00*%
%TF.ProjectId,Second board,5365636f-6e64-4206-926f-6172642e6b69,rev?*%
%TF.SameCoordinates,Original*%
%TF.FileFunction,Legend,Top*%
%TF.FilePolarity,Positive*%
%FSLAX46Y46*%
G04 Gerber Fmt 4.6, Leading zero omitted, Abs format (unit mm)*
G04 Created by KiCad (PCBNEW 9.0.7) date 2026-04-20 11:40:19*
%MOMM*%
%LPD*%
G01*
G04 APERTURE LIST*
%ADD10C,0.150000*%
%ADD11C,0.100000*%
%ADD12C,0.142240*%
%ADD13C,0.152400*%
%ADD14C,0.220980*%
%ADD15C,0.203200*%
%ADD16C,0.120000*%
%ADD17C,0.050000*%
G04 APERTURE END LIST*
D10*
X-459925Y21570934D02*
X-459925Y20933514D01*
X-459925Y20933514D02*
X-422430Y20858523D01*
X-422430Y20858523D02*
X-384934Y20821028D01*
X-384934Y20821028D02*
X-309944Y20783532D01*
X-309944Y20783532D02*
X-159962Y20783532D01*
X-159962Y20783532D02*
X-84972Y20821028D01*
X-84972Y20821028D02*
X-47476Y20858523D01*
X-47476Y20858523D02*
X-9981Y20933514D01*
X-9981Y20933514D02*
X-9981Y21570934D01*
X777420Y20783532D02*
X327476Y20783532D01*
X552448Y20783532D02*
X552448Y21570934D01*
X552448Y21570934D02*
X477457Y21458448D01*
X477457Y21458448D02*
X402467Y21383458D01*
X402467Y21383458D02*
X327476Y21345962D01*
X-9430504Y24485590D02*
X-9097171Y24485590D01*
X-8954314Y23961780D02*
X-9430504Y23961780D01*
X-9430504Y23961780D02*
X-9430504Y24961780D01*
X-9430504Y24961780D02*
X-8954314Y24961780D01*
X-8573361Y24009400D02*
X-8430504Y23961780D01*
X-8430504Y23961780D02*
X-8192409Y23961780D01*
X-8192409Y23961780D02*
X-8097171Y24009400D01*
X-8097171Y24009400D02*
X-8049552Y24057019D01*
X-8049552Y24057019D02*
X-8001933Y24152257D01*
X-8001933Y24152257D02*
X-8001933Y24247495D01*
X-8001933Y24247495D02*
X-8049552Y24342733D01*
X-8049552Y24342733D02*
X-8097171Y24390352D01*
X-8097171Y24390352D02*
X-8192409Y24437971D01*
X-8192409Y24437971D02*
X-8382885Y24485590D01*
X-8382885Y24485590D02*
X-8478123Y24533209D01*
X-8478123Y24533209D02*
X-8525742Y24580828D01*
X-8525742Y24580828D02*
X-8573361Y24676066D01*
X-8573361Y24676066D02*
X-8573361Y24771304D01*
X-8573361Y24771304D02*
X-8525742Y24866542D01*
X-8525742Y24866542D02*
X-8478123Y24914161D01*
X-8478123Y24914161D02*
X-8382885Y24961780D01*
X-8382885Y24961780D02*
X-8144790Y24961780D01*
X-8144790Y24961780D02*
X-8001933Y24914161D01*
X-7573361Y23961780D02*
X-7573361Y24961780D01*
X-7573361Y24961780D02*
X-7192409Y24961780D01*
X-7192409Y24961780D02*
X-7097171Y24914161D01*
X-7097171Y24914161D02*
X-7049552Y24866542D01*
X-7049552Y24866542D02*
X-7001933Y24771304D01*
X-7001933Y24771304D02*
X-7001933Y24628447D01*
X-7001933Y24628447D02*
X-7049552Y24533209D01*
X-7049552Y24533209D02*
X-7097171Y24485590D01*
X-7097171Y24485590D02*
X-7192409Y24437971D01*
X-7192409Y24437971D02*
X-7573361Y24437971D01*
X-6668599Y24961780D02*
X-6049552Y24961780D01*
X-6049552Y24961780D02*
X-6382885Y24580828D01*
X-6382885Y24580828D02*
X-6240028Y24580828D01*
X-6240028Y24580828D02*
X-6144790Y24533209D01*
X-6144790Y24533209D02*
X-6097171Y24485590D01*
X-6097171Y24485590D02*
X-6049552Y24390352D01*
X-6049552Y24390352D02*
X-6049552Y24152257D01*
X-6049552Y24152257D02*
X-6097171Y24057019D01*
X-6097171Y24057019D02*
X-6144790Y24009400D01*
X-6144790Y24009400D02*
X-6240028Y23961780D01*
X-6240028Y23961780D02*
X-6525742Y23961780D01*
X-6525742Y23961780D02*
X-6620980Y24009400D01*
X-6620980Y24009400D02*
X-6668599Y24057019D01*
X-5668599Y24866542D02*
X-5620980Y24914161D01*
X-5620980Y24914161D02*
X-5525742Y24961780D01*
X-5525742Y24961780D02*
X-5287647Y24961780D01*
X-5287647Y24961780D02*
X-5192409Y24914161D01*
X-5192409Y24914161D02*
X-5144790Y24866542D01*
X-5144790Y24866542D02*
X-5097171Y24771304D01*
X-5097171Y24771304D02*
X-5097171Y24676066D01*
X-5097171Y24676066D02*
X-5144790Y24533209D01*
X-5144790Y24533209D02*
X-5716218Y23961780D01*
X-5716218Y23961780D02*
X-5097171Y23961780D01*
X-4668599Y24342733D02*
X-3906695Y24342733D01*
X-2859076Y24057019D02*
X-2906695Y24009400D01*
X-2906695Y24009400D02*
X-3049552Y23961780D01*
X-3049552Y23961780D02*
X-3144790Y23961780D01*
X-3144790Y23961780D02*
X-3287647Y24009400D01*
X-3287647Y24009400D02*
X-3382885Y24104638D01*
X-3382885Y24104638D02*
X-3430504Y24199876D01*
X-3430504Y24199876D02*
X-3478123Y24390352D01*
X-3478123Y24390352D02*
X-3478123Y24533209D01*
X-3478123Y24533209D02*
X-3430504Y24723685D01*
X-3430504Y24723685D02*
X-3382885Y24818923D01*
X-3382885Y24818923D02*
X-3287647Y24914161D01*
X-3287647Y24914161D02*
X-3144790Y24961780D01*
X-3144790Y24961780D02*
X-3049552Y24961780D01*
X-3049552Y24961780D02*
X-2906695Y24914161D01*
X-2906695Y24914161D02*
X-2859076Y24866542D01*
X-2478123Y24247495D02*
X-2001933Y24247495D01*
X-2573361Y23961780D02*
X-2240028Y24961780D01*
X-2240028Y24961780D02*
X-1906695Y23961780D01*
X-1573361Y23961780D02*
X-1573361Y24961780D01*
X-1573361Y24961780D02*
X-1240028Y24247495D01*
X-1240028Y24247495D02*
X-906695Y24961780D01*
X-906695Y24961780D02*
X-906695Y23961780D01*
X-49335180Y15168572D02*
X-50335180Y15168572D01*
X-50239942Y15597143D02*
X-50287561Y15644762D01*
X-50287561Y15644762D02*
X-50335180Y15740000D01*
X-50335180Y15740000D02*
X-50335180Y15978095D01*
X-50335180Y15978095D02*
X-50287561Y16073333D01*
X-50287561Y16073333D02*
X-50239942Y16120952D01*
X-50239942Y16120952D02*
X-50144704Y16168571D01*
X-50144704Y16168571D02*
X-50049466Y16168571D01*
X-50049466Y16168571D02*
X-49906609Y16120952D01*
X-49906609Y16120952D02*
X-49335180Y15549524D01*
X-49335180Y15549524D02*
X-49335180Y16168571D01*
X-49430419Y17168571D02*
X-49382800Y17120952D01*
X-49382800Y17120952D02*
X-49335180Y16978095D01*
X-49335180Y16978095D02*
X-49335180Y16882857D01*
X-49335180Y16882857D02*
X-49382800Y16740000D01*
X-49382800Y16740000D02*
X-49478038Y16644762D01*
X-49478038Y16644762D02*
X-49573276Y16597143D01*
X-49573276Y16597143D02*
X-49763752Y16549524D01*
X-49763752Y16549524D02*
X-49906609Y16549524D01*
X-49906609Y16549524D02*
X-50097085Y16597143D01*
X-50097085Y16597143D02*
X-50192323Y16644762D01*
X-50192323Y16644762D02*
X-50287561Y16740000D01*
X-50287561Y16740000D02*
X-50335180Y16882857D01*
X-50335180Y16882857D02*
X-50335180Y16978095D01*
X-50335180Y16978095D02*
X-50287561Y17120952D01*
X-50287561Y17120952D02*
X-50239942Y17168571D01*
X-49716133Y17597143D02*
X-49716133Y18359048D01*
X-50239942Y18787619D02*
X-50287561Y18835238D01*
X-50287561Y18835238D02*
X-50335180Y18930476D01*
X-50335180Y18930476D02*
X-50335180Y19168571D01*
X-50335180Y19168571D02*
X-50287561Y19263809D01*
X-50287561Y19263809D02*
X-50239942Y19311428D01*
X-50239942Y19311428D02*
X-50144704Y19359047D01*
X-50144704Y19359047D02*
X-50049466Y19359047D01*
X-50049466Y19359047D02*
X-49906609Y19311428D01*
X-49906609Y19311428D02*
X-49335180Y18740000D01*
X-49335180Y18740000D02*
X-49335180Y19359047D01*
X-49465180Y-7821427D02*
X-50465180Y-7821427D01*
X-50369942Y-7392856D02*
X-50417561Y-7345237D01*
X-50417561Y-7345237D02*
X-50465180Y-7249999D01*
X-50465180Y-7249999D02*
X-50465180Y-7011904D01*
X-50465180Y-7011904D02*
X-50417561Y-6916666D01*
X-50417561Y-6916666D02*
X-50369942Y-6869047D01*
X-50369942Y-6869047D02*
X-50274704Y-6821428D01*
X-50274704Y-6821428D02*
X-50179466Y-6821428D01*
X-50179466Y-6821428D02*
X-50036609Y-6869047D01*
X-50036609Y-6869047D02*
X-49465180Y-7440475D01*
X-49465180Y-7440475D02*
X-49465180Y-6821428D01*
X-49560419Y-5821428D02*
X-49512800Y-5869047D01*
X-49512800Y-5869047D02*
X-49465180Y-6011904D01*
X-49465180Y-6011904D02*
X-49465180Y-6107142D01*
X-49465180Y-6107142D02*
X-49512800Y-6249999D01*
X-49512800Y-6249999D02*
X-49608038Y-6345237D01*
X-49608038Y-6345237D02*
X-49703276Y-6392856D01*
X-49703276Y-6392856D02*
X-49893752Y-6440475D01*
X-49893752Y-6440475D02*
X-50036609Y-6440475D01*
X-50036609Y-6440475D02*
X-50227085Y-6392856D01*
X-50227085Y-6392856D02*
X-50322323Y-6345237D01*
X-50322323Y-6345237D02*
X-50417561Y-6249999D01*
X-50417561Y-6249999D02*
X-50465180Y-6107142D01*
X-50465180Y-6107142D02*
X-50465180Y-6011904D01*
X-50465180Y-6011904D02*
X-50417561Y-5869047D01*
X-50417561Y-5869047D02*
X-50369942Y-5821428D01*
X-49846133Y-5392856D02*
X-49846133Y-4630952D01*
X-49465180Y-3630952D02*
X-49465180Y-4202380D01*
X-49465180Y-3916666D02*
X-50465180Y-3916666D01*
X-50465180Y-3916666D02*
X-50322323Y-4011904D01*
X-50322323Y-4011904D02*
X-50227085Y-4107142D01*
X-50227085Y-4107142D02*
X-50179466Y-4202380D01*
D11*
X-35112580Y-26469999D02*
X-35112580Y-25803333D01*
X-35112580Y-25803333D02*
X-34112580Y-26469999D01*
X-34112580Y-26469999D02*
X-34112580Y-25803333D01*
X-35112580Y-25517618D02*
X-34112580Y-24850952D01*
X-35112580Y-24850952D02*
X-34112580Y-25517618D01*
X-34493533Y-24469999D02*
X-34493533Y-23708095D01*
X-34112580Y-23231904D02*
X-35112580Y-23231904D01*
X-35112580Y-23231904D02*
X-34398295Y-22898571D01*
X-34398295Y-22898571D02*
X-35112580Y-22565238D01*
X-35112580Y-22565238D02*
X-34112580Y-22565238D01*
X-34112580Y-22089047D02*
X-35112580Y-22089047D01*
X-35112580Y-22089047D02*
X-35112580Y-21708095D01*
X-35112580Y-21708095D02*
X-35064961Y-21612857D01*
X-35064961Y-21612857D02*
X-35017342Y-21565238D01*
X-35017342Y-21565238D02*
X-34922104Y-21517619D01*
X-34922104Y-21517619D02*
X-34779247Y-21517619D01*
X-34779247Y-21517619D02*
X-34684009Y-21565238D01*
X-34684009Y-21565238D02*
X-34636390Y-21612857D01*
X-34636390Y-21612857D02*
X-34588771Y-21708095D01*
X-34588771Y-21708095D02*
X-34588771Y-22089047D01*
X-35112580Y-21089047D02*
X-34303057Y-21089047D01*
X-34303057Y-21089047D02*
X-34207819Y-21041428D01*
X-34207819Y-21041428D02*
X-34160200Y-20993809D01*
X-34160200Y-20993809D02*
X-34112580Y-20898571D01*
X-34112580Y-20898571D02*
X-34112580Y-20708095D01*
X-34112580Y-20708095D02*
X-34160200Y-20612857D01*
X-34160200Y-20612857D02*
X-34207819Y-20565238D01*
X-34207819Y-20565238D02*
X-34303057Y-20517619D01*
X-34303057Y-20517619D02*
X-35112580Y-20517619D01*
X-34112580Y-19517619D02*
X-34112580Y-20089047D01*
X-34112580Y-19803333D02*
X-35112580Y-19803333D01*
X-35112580Y-19803333D02*
X-34969723Y-19898571D01*
X-34969723Y-19898571D02*
X-34874485Y-19993809D01*
X-34874485Y-19993809D02*
X-34826866Y-20089047D01*
X23872717Y-46271012D02*
X23967955Y-46318631D01*
X23967955Y-46318631D02*
X24110812Y-46318631D01*
X24110812Y-46318631D02*
X24253669Y-46271012D01*
X24253669Y-46271012D02*
X24348907Y-46175774D01*
X24348907Y-46175774D02*
X24396526Y-46080536D01*
X24396526Y-46080536D02*
X24444145Y-45890060D01*
X24444145Y-45890060D02*
X24444145Y-45747203D01*
X24444145Y-45747203D02*
X24396526Y-45556727D01*
X24396526Y-45556727D02*
X24348907Y-45461489D01*
X24348907Y-45461489D02*
X24253669Y-45366251D01*
X24253669Y-45366251D02*
X24110812Y-45318631D01*
X24110812Y-45318631D02*
X24015574Y-45318631D01*
X24015574Y-45318631D02*
X23872717Y-45366251D01*
X23872717Y-45366251D02*
X23825098Y-45413870D01*
X23825098Y-45413870D02*
X23825098Y-45747203D01*
X23825098Y-45747203D02*
X24015574Y-45747203D01*
X23206050Y-45794822D02*
X23206050Y-45318631D01*
X23539383Y-46318631D02*
X23206050Y-45794822D01*
X23206050Y-45794822D02*
X22872717Y-46318631D01*
X22206050Y-45842441D02*
X22063193Y-45794822D01*
X22063193Y-45794822D02*
X22015574Y-45747203D01*
X22015574Y-45747203D02*
X21967955Y-45651965D01*
X21967955Y-45651965D02*
X21967955Y-45509108D01*
X21967955Y-45509108D02*
X22015574Y-45413870D01*
X22015574Y-45413870D02*
X22063193Y-45366251D01*
X22063193Y-45366251D02*
X22158431Y-45318631D01*
X22158431Y-45318631D02*
X22539383Y-45318631D01*
X22539383Y-45318631D02*
X22539383Y-46318631D01*
X22539383Y-46318631D02*
X22206050Y-46318631D01*
X22206050Y-46318631D02*
X22110812Y-46271012D01*
X22110812Y-46271012D02*
X22063193Y-46223393D01*
X22063193Y-46223393D02*
X22015574Y-46128155D01*
X22015574Y-46128155D02*
X22015574Y-46032917D01*
X22015574Y-46032917D02*
X22063193Y-45937679D01*
X22063193Y-45937679D02*
X22110812Y-45890060D01*
X22110812Y-45890060D02*
X22206050Y-45842441D01*
X22206050Y-45842441D02*
X22539383Y-45842441D01*
X21539383Y-45318631D02*
X21539383Y-46318631D01*
X21539383Y-46318631D02*
X21206050Y-45604346D01*
X21206050Y-45604346D02*
X20872717Y-46318631D01*
X20872717Y-46318631D02*
X20872717Y-45318631D01*
X20396526Y-45842441D02*
X20063193Y-45842441D01*
X19920336Y-45318631D02*
X20396526Y-45318631D01*
X20396526Y-45318631D02*
X20396526Y-46318631D01*
X20396526Y-46318631D02*
X19920336Y-46318631D01*
X18967955Y-45318631D02*
X19539383Y-45318631D01*
X19253669Y-45318631D02*
X19253669Y-46318631D01*
X19253669Y-46318631D02*
X19348907Y-46175774D01*
X19348907Y-46175774D02*
X19444145Y-46080536D01*
X19444145Y-46080536D02*
X19539383Y-46032917D01*
X6186548Y-35545080D02*
X6662738Y-35545080D01*
X6662738Y-35545080D02*
X6662738Y-36545080D01*
X5853214Y-35545080D02*
X5853214Y-36211747D01*
X5853214Y-36545080D02*
X5900833Y-36497461D01*
X5900833Y-36497461D02*
X5853214Y-36449842D01*
X5853214Y-36449842D02*
X5805595Y-36497461D01*
X5805595Y-36497461D02*
X5853214Y-36545080D01*
X5853214Y-36545080D02*
X5853214Y-36449842D01*
X4948453Y-36211747D02*
X4948453Y-35402223D01*
X4948453Y-35402223D02*
X4996072Y-35306985D01*
X4996072Y-35306985D02*
X5043691Y-35259366D01*
X5043691Y-35259366D02*
X5138929Y-35211747D01*
X5138929Y-35211747D02*
X5281786Y-35211747D01*
X5281786Y-35211747D02*
X5377024Y-35259366D01*
X4948453Y-35592700D02*
X5043691Y-35545080D01*
X5043691Y-35545080D02*
X5234167Y-35545080D01*
X5234167Y-35545080D02*
X5329405Y-35592700D01*
X5329405Y-35592700D02*
X5377024Y-35640319D01*
X5377024Y-35640319D02*
X5424643Y-35735557D01*
X5424643Y-35735557D02*
X5424643Y-36021271D01*
X5424643Y-36021271D02*
X5377024Y-36116509D01*
X5377024Y-36116509D02*
X5329405Y-36164128D01*
X5329405Y-36164128D02*
X5234167Y-36211747D01*
X5234167Y-36211747D02*
X5043691Y-36211747D01*
X5043691Y-36211747D02*
X4948453Y-36164128D01*
X4472262Y-35545080D02*
X4472262Y-36545080D01*
X4043691Y-35545080D02*
X4043691Y-36068890D01*
X4043691Y-36068890D02*
X4091310Y-36164128D01*
X4091310Y-36164128D02*
X4186548Y-36211747D01*
X4186548Y-36211747D02*
X4329405Y-36211747D01*
X4329405Y-36211747D02*
X4424643Y-36164128D01*
X4424643Y-36164128D02*
X4472262Y-36116509D01*
X3710357Y-36211747D02*
X3329405Y-36211747D01*
X3567500Y-36545080D02*
X3567500Y-35687938D01*
X3567500Y-35687938D02*
X3519881Y-35592700D01*
X3519881Y-35592700D02*
X3424643Y-35545080D01*
X3424643Y-35545080D02*
X3329405Y-35545080D01*
X3043690Y-35592700D02*
X2900833Y-35545080D01*
X2900833Y-35545080D02*
X2662738Y-35545080D01*
X2662738Y-35545080D02*
X2567500Y-35592700D01*
X2567500Y-35592700D02*
X2519881Y-35640319D01*
X2519881Y-35640319D02*
X2472262Y-35735557D01*
X2472262Y-35735557D02*
X2472262Y-35830795D01*
X2472262Y-35830795D02*
X2519881Y-35926033D01*
X2519881Y-35926033D02*
X2567500Y-35973652D01*
X2567500Y-35973652D02*
X2662738Y-36021271D01*
X2662738Y-36021271D02*
X2853214Y-36068890D01*
X2853214Y-36068890D02*
X2948452Y-36116509D01*
X2948452Y-36116509D02*
X2996071Y-36164128D01*
X2996071Y-36164128D02*
X3043690Y-36259366D01*
X3043690Y-36259366D02*
X3043690Y-36354604D01*
X3043690Y-36354604D02*
X2996071Y-36449842D01*
X2996071Y-36449842D02*
X2948452Y-36497461D01*
X2948452Y-36497461D02*
X2853214Y-36545080D01*
X2853214Y-36545080D02*
X2615119Y-36545080D01*
X2615119Y-36545080D02*
X2472262Y-36497461D01*
X1662738Y-35592700D02*
X1757976Y-35545080D01*
X1757976Y-35545080D02*
X1948452Y-35545080D01*
X1948452Y-35545080D02*
X2043690Y-35592700D01*
X2043690Y-35592700D02*
X2091309Y-35687938D01*
X2091309Y-35687938D02*
X2091309Y-36068890D01*
X2091309Y-36068890D02*
X2043690Y-36164128D01*
X2043690Y-36164128D02*
X1948452Y-36211747D01*
X1948452Y-36211747D02*
X1757976Y-36211747D01*
X1757976Y-36211747D02*
X1662738Y-36164128D01*
X1662738Y-36164128D02*
X1615119Y-36068890D01*
X1615119Y-36068890D02*
X1615119Y-35973652D01*
X1615119Y-35973652D02*
X2091309Y-35878414D01*
X1186547Y-36211747D02*
X1186547Y-35545080D01*
X1186547Y-36116509D02*
X1138928Y-36164128D01*
X1138928Y-36164128D02*
X1043690Y-36211747D01*
X1043690Y-36211747D02*
X900833Y-36211747D01*
X900833Y-36211747D02*
X805595Y-36164128D01*
X805595Y-36164128D02*
X757976Y-36068890D01*
X757976Y-36068890D02*
X757976Y-35545080D01*
X329404Y-35592700D02*
X234166Y-35545080D01*
X234166Y-35545080D02*
X43690Y-35545080D01*
X43690Y-35545080D02*
X-51547Y-35592700D01*
X-51547Y-35592700D02*
X-99166Y-35687938D01*
X-99166Y-35687938D02*
X-99166Y-35735557D01*
X-99166Y-35735557D02*
X-51547Y-35830795D01*
X-51547Y-35830795D02*
X43690Y-35878414D01*
X43690Y-35878414D02*
X186547Y-35878414D01*
X186547Y-35878414D02*
X281785Y-35926033D01*
X281785Y-35926033D02*
X329404Y-36021271D01*
X329404Y-36021271D02*
X329404Y-36068890D01*
X329404Y-36068890D02*
X281785Y-36164128D01*
X281785Y-36164128D02*
X186547Y-36211747D01*
X186547Y-36211747D02*
X43690Y-36211747D01*
X43690Y-36211747D02*
X-51547Y-36164128D01*
X-670595Y-35545080D02*
X-575357Y-35592700D01*
X-575357Y-35592700D02*
X-527738Y-35640319D01*
X-527738Y-35640319D02*
X-480119Y-35735557D01*
X-480119Y-35735557D02*
X-480119Y-36021271D01*
X-480119Y-36021271D02*
X-527738Y-36116509D01*
X-527738Y-36116509D02*
X-575357Y-36164128D01*
X-575357Y-36164128D02*
X-670595Y-36211747D01*
X-670595Y-36211747D02*
X-813452Y-36211747D01*
X-813452Y-36211747D02*
X-908690Y-36164128D01*
X-908690Y-36164128D02*
X-956309Y-36116509D01*
X-956309Y-36116509D02*
X-1003928Y-36021271D01*
X-1003928Y-36021271D02*
X-1003928Y-35735557D01*
X-1003928Y-35735557D02*
X-956309Y-35640319D01*
X-956309Y-35640319D02*
X-908690Y-35592700D01*
X-908690Y-35592700D02*
X-813452Y-35545080D01*
X-813452Y-35545080D02*
X-670595Y-35545080D01*
X-1432500Y-35545080D02*
X-1432500Y-36211747D01*
X-1432500Y-36021271D02*
X-1480119Y-36116509D01*
X-1480119Y-36116509D02*
X-1527738Y-36164128D01*
X-1527738Y-36164128D02*
X-1622976Y-36211747D01*
X-1622976Y-36211747D02*
X-1718214Y-36211747D01*
X-2575357Y-35545080D02*
X-2003929Y-35545080D01*
X-2289643Y-35545080D02*
X-2289643Y-36545080D01*
X-2289643Y-36545080D02*
X-2194405Y-36402223D01*
X-2194405Y-36402223D02*
X-2099167Y-36306985D01*
X-2099167Y-36306985D02*
X-2003929Y-36259366D01*
D12*
X-7562605Y-40476838D02*
X-8103504Y-40476838D01*
X-8103504Y-40476838D02*
X-7812251Y-40143977D01*
X-7812251Y-40143977D02*
X-7937074Y-40143977D01*
X-7937074Y-40143977D02*
X-8020289Y-40102369D01*
X-8020289Y-40102369D02*
X-8061897Y-40060762D01*
X-8061897Y-40060762D02*
X-8103504Y-39977546D01*
X-8103504Y-39977546D02*
X-8103504Y-39769508D01*
X-8103504Y-39769508D02*
X-8061897Y-39686293D01*
X-8061897Y-39686293D02*
X-8020289Y-39644686D01*
X-8020289Y-39644686D02*
X-7937074Y-39603078D01*
X-7937074Y-39603078D02*
X-7687428Y-39603078D01*
X-7687428Y-39603078D02*
X-7604213Y-39644686D01*
X-7604213Y-39644686D02*
X-7562605Y-39686293D01*
X-8353150Y-40476838D02*
X-8644403Y-39603078D01*
X-8644403Y-39603078D02*
X-8935656Y-40476838D01*
X-9351732Y-39603078D02*
X-9268517Y-39644686D01*
X-9268517Y-39644686D02*
X-9226910Y-39686293D01*
X-9226910Y-39686293D02*
X-9185302Y-39769508D01*
X-9185302Y-39769508D02*
X-9185302Y-40019154D01*
X-9185302Y-40019154D02*
X-9226910Y-40102369D01*
X-9226910Y-40102369D02*
X-9268517Y-40143977D01*
X-9268517Y-40143977D02*
X-9351732Y-40185585D01*
X-9351732Y-40185585D02*
X-9476555Y-40185585D01*
X-9476555Y-40185585D02*
X-9559771Y-40143977D01*
X-9559771Y-40143977D02*
X-9601378Y-40102369D01*
X-9601378Y-40102369D02*
X-9642986Y-40019154D01*
X-9642986Y-40019154D02*
X-9642986Y-39769508D01*
X-9642986Y-39769508D02*
X-9601378Y-39686293D01*
X-9601378Y-39686293D02*
X-9559771Y-39644686D01*
X-9559771Y-39644686D02*
X-9476555Y-39603078D01*
X-9476555Y-39603078D02*
X-9351732Y-39603078D01*
X-17264922Y-39852724D02*
X-17680998Y-39852724D01*
X-17181707Y-39603078D02*
X-17472960Y-40476838D01*
X-17472960Y-40476838D02*
X-17764213Y-39603078D01*
X-18055467Y-39603078D02*
X-18055467Y-40476838D01*
X-18055467Y-40476838D02*
X-18263505Y-40476838D01*
X-18263505Y-40476838D02*
X-18388328Y-40435230D01*
X-18388328Y-40435230D02*
X-18471543Y-40352015D01*
X-18471543Y-40352015D02*
X-18513150Y-40268800D01*
X-18513150Y-40268800D02*
X-18554758Y-40102369D01*
X-18554758Y-40102369D02*
X-18554758Y-39977546D01*
X-18554758Y-39977546D02*
X-18513150Y-39811116D01*
X-18513150Y-39811116D02*
X-18471543Y-39727901D01*
X-18471543Y-39727901D02*
X-18388328Y-39644686D01*
X-18388328Y-39644686D02*
X-18263505Y-39603078D01*
X-18263505Y-39603078D02*
X-18055467Y-39603078D01*
X-18929227Y-39603078D02*
X-18929227Y-40476838D01*
X-18929227Y-40476838D02*
X-19137265Y-40476838D01*
X-19137265Y-40476838D02*
X-19262088Y-40435230D01*
X-19262088Y-40435230D02*
X-19345303Y-40352015D01*
X-19345303Y-40352015D02*
X-19386910Y-40268800D01*
X-19386910Y-40268800D02*
X-19428518Y-40102369D01*
X-19428518Y-40102369D02*
X-19428518Y-39977546D01*
X-19428518Y-39977546D02*
X-19386910Y-39811116D01*
X-19386910Y-39811116D02*
X-19345303Y-39727901D01*
X-19345303Y-39727901D02*
X-19262088Y-39644686D01*
X-19262088Y-39644686D02*
X-19137265Y-39603078D01*
X-19137265Y-39603078D02*
X-18929227Y-39603078D01*
X-20302278Y-39603078D02*
X-20011025Y-40019154D01*
X-19802987Y-39603078D02*
X-19802987Y-40476838D01*
X-19802987Y-40476838D02*
X-20135848Y-40476838D01*
X-20135848Y-40476838D02*
X-20219063Y-40435230D01*
X-20219063Y-40435230D02*
X-20260670Y-40393623D01*
X-20260670Y-40393623D02*
X-20302278Y-40310407D01*
X-20302278Y-40310407D02*
X-20302278Y-40185585D01*
X-20302278Y-40185585D02*
X-20260670Y-40102369D01*
X-20260670Y-40102369D02*
X-20219063Y-40060762D01*
X-20219063Y-40060762D02*
X-20135848Y-40019154D01*
X-20135848Y-40019154D02*
X-19802987Y-40019154D01*
D13*
X-9720638Y-50022306D02*
X-9309400Y-50022306D01*
X-9309400Y-50022306D02*
X-9309400Y-50885906D01*
X-10008505Y-50022306D02*
X-10008505Y-50598039D01*
X-10008505Y-50885906D02*
X-9967381Y-50844782D01*
X-9967381Y-50844782D02*
X-10008505Y-50803658D01*
X-10008505Y-50803658D02*
X-10049628Y-50844782D01*
X-10049628Y-50844782D02*
X-10008505Y-50885906D01*
X-10008505Y-50885906D02*
X-10008505Y-50803658D01*
X-10789857Y-50598039D02*
X-10789857Y-49898934D01*
X-10789857Y-49898934D02*
X-10748733Y-49816687D01*
X-10748733Y-49816687D02*
X-10707609Y-49775563D01*
X-10707609Y-49775563D02*
X-10625362Y-49734439D01*
X-10625362Y-49734439D02*
X-10501990Y-49734439D01*
X-10501990Y-49734439D02*
X-10419743Y-49775563D01*
X-10789857Y-50063430D02*
X-10707609Y-50022306D01*
X-10707609Y-50022306D02*
X-10543114Y-50022306D01*
X-10543114Y-50022306D02*
X-10460866Y-50063430D01*
X-10460866Y-50063430D02*
X-10419743Y-50104553D01*
X-10419743Y-50104553D02*
X-10378619Y-50186801D01*
X-10378619Y-50186801D02*
X-10378619Y-50433544D01*
X-10378619Y-50433544D02*
X-10419743Y-50515791D01*
X-10419743Y-50515791D02*
X-10460866Y-50556915D01*
X-10460866Y-50556915D02*
X-10543114Y-50598039D01*
X-10543114Y-50598039D02*
X-10707609Y-50598039D01*
X-10707609Y-50598039D02*
X-10789857Y-50556915D01*
X-11201095Y-50022306D02*
X-11201095Y-50885906D01*
X-11571209Y-50022306D02*
X-11571209Y-50474668D01*
X-11571209Y-50474668D02*
X-11530085Y-50556915D01*
X-11530085Y-50556915D02*
X-11447837Y-50598039D01*
X-11447837Y-50598039D02*
X-11324466Y-50598039D01*
X-11324466Y-50598039D02*
X-11242218Y-50556915D01*
X-11242218Y-50556915D02*
X-11201095Y-50515791D01*
X-11859075Y-50598039D02*
X-12188066Y-50598039D01*
X-11982447Y-50885906D02*
X-11982447Y-50145677D01*
X-11982447Y-50145677D02*
X-12023570Y-50063430D01*
X-12023570Y-50063430D02*
X-12105818Y-50022306D01*
X-12105818Y-50022306D02*
X-12188066Y-50022306D01*
X-13092790Y-50063430D02*
X-13216161Y-50022306D01*
X-13216161Y-50022306D02*
X-13421780Y-50022306D01*
X-13421780Y-50022306D02*
X-13504028Y-50063430D01*
X-13504028Y-50063430D02*
X-13545152Y-50104553D01*
X-13545152Y-50104553D02*
X-13586275Y-50186801D01*
X-13586275Y-50186801D02*
X-13586275Y-50269049D01*
X-13586275Y-50269049D02*
X-13545152Y-50351296D01*
X-13545152Y-50351296D02*
X-13504028Y-50392420D01*
X-13504028Y-50392420D02*
X-13421780Y-50433544D01*
X-13421780Y-50433544D02*
X-13257285Y-50474668D01*
X-13257285Y-50474668D02*
X-13175037Y-50515791D01*
X-13175037Y-50515791D02*
X-13133914Y-50556915D01*
X-13133914Y-50556915D02*
X-13092790Y-50639163D01*
X-13092790Y-50639163D02*
X-13092790Y-50721410D01*
X-13092790Y-50721410D02*
X-13133914Y-50803658D01*
X-13133914Y-50803658D02*
X-13175037Y-50844782D01*
X-13175037Y-50844782D02*
X-13257285Y-50885906D01*
X-13257285Y-50885906D02*
X-13462904Y-50885906D01*
X-13462904Y-50885906D02*
X-13586275Y-50844782D01*
X-14285380Y-50063430D02*
X-14203132Y-50022306D01*
X-14203132Y-50022306D02*
X-14038637Y-50022306D01*
X-14038637Y-50022306D02*
X-13956390Y-50063430D01*
X-13956390Y-50063430D02*
X-13915266Y-50145677D01*
X-13915266Y-50145677D02*
X-13915266Y-50474668D01*
X-13915266Y-50474668D02*
X-13956390Y-50556915D01*
X-13956390Y-50556915D02*
X-14038637Y-50598039D01*
X-14038637Y-50598039D02*
X-14203132Y-50598039D01*
X-14203132Y-50598039D02*
X-14285380Y-50556915D01*
X-14285380Y-50556915D02*
X-14326504Y-50474668D01*
X-14326504Y-50474668D02*
X-14326504Y-50392420D01*
X-14326504Y-50392420D02*
X-13915266Y-50310172D01*
X-14696619Y-50598039D02*
X-14696619Y-50022306D01*
X-14696619Y-50515791D02*
X-14737742Y-50556915D01*
X-14737742Y-50556915D02*
X-14819990Y-50598039D01*
X-14819990Y-50598039D02*
X-14943361Y-50598039D01*
X-14943361Y-50598039D02*
X-15025609Y-50556915D01*
X-15025609Y-50556915D02*
X-15066733Y-50474668D01*
X-15066733Y-50474668D02*
X-15066733Y-50022306D01*
X-15436847Y-50063430D02*
X-15519094Y-50022306D01*
X-15519094Y-50022306D02*
X-15683590Y-50022306D01*
X-15683590Y-50022306D02*
X-15765837Y-50063430D01*
X-15765837Y-50063430D02*
X-15806961Y-50145677D01*
X-15806961Y-50145677D02*
X-15806961Y-50186801D01*
X-15806961Y-50186801D02*
X-15765837Y-50269049D01*
X-15765837Y-50269049D02*
X-15683590Y-50310172D01*
X-15683590Y-50310172D02*
X-15560218Y-50310172D01*
X-15560218Y-50310172D02*
X-15477971Y-50351296D01*
X-15477971Y-50351296D02*
X-15436847Y-50433544D01*
X-15436847Y-50433544D02*
X-15436847Y-50474668D01*
X-15436847Y-50474668D02*
X-15477971Y-50556915D01*
X-15477971Y-50556915D02*
X-15560218Y-50598039D01*
X-15560218Y-50598039D02*
X-15683590Y-50598039D01*
X-15683590Y-50598039D02*
X-15765837Y-50556915D01*
X-16300447Y-50022306D02*
X-16218199Y-50063430D01*
X-16218199Y-50063430D02*
X-16177076Y-50104553D01*
X-16177076Y-50104553D02*
X-16135952Y-50186801D01*
X-16135952Y-50186801D02*
X-16135952Y-50433544D01*
X-16135952Y-50433544D02*
X-16177076Y-50515791D01*
X-16177076Y-50515791D02*
X-16218199Y-50556915D01*
X-16218199Y-50556915D02*
X-16300447Y-50598039D01*
X-16300447Y-50598039D02*
X-16423818Y-50598039D01*
X-16423818Y-50598039D02*
X-16506066Y-50556915D01*
X-16506066Y-50556915D02*
X-16547190Y-50515791D01*
X-16547190Y-50515791D02*
X-16588314Y-50433544D01*
X-16588314Y-50433544D02*
X-16588314Y-50186801D01*
X-16588314Y-50186801D02*
X-16547190Y-50104553D01*
X-16547190Y-50104553D02*
X-16506066Y-50063430D01*
X-16506066Y-50063430D02*
X-16423818Y-50022306D01*
X-16423818Y-50022306D02*
X-16300447Y-50022306D01*
X-16958428Y-50022306D02*
X-16958428Y-50598039D01*
X-16958428Y-50433544D02*
X-16999551Y-50515791D01*
X-16999551Y-50515791D02*
X-17040675Y-50556915D01*
X-17040675Y-50556915D02*
X-17122923Y-50598039D01*
X-17122923Y-50598039D02*
X-17205170Y-50598039D01*
D14*
X-9481939Y-52407014D02*
X-9660827Y-52347384D01*
X-9660827Y-52347384D02*
X-9720457Y-52287755D01*
X-9720457Y-52287755D02*
X-9780086Y-52168496D01*
X-9780086Y-52168496D02*
X-9780086Y-51989607D01*
X-9780086Y-51989607D02*
X-9720457Y-51870348D01*
X-9720457Y-51870348D02*
X-9660827Y-51810719D01*
X-9660827Y-51810719D02*
X-9541568Y-51751089D01*
X-9541568Y-51751089D02*
X-9064532Y-51751089D01*
X-9064532Y-51751089D02*
X-9064532Y-53003309D01*
X-9064532Y-53003309D02*
X-9481939Y-53003309D01*
X-9481939Y-53003309D02*
X-9601198Y-52943679D01*
X-9601198Y-52943679D02*
X-9660827Y-52884050D01*
X-9660827Y-52884050D02*
X-9720457Y-52764791D01*
X-9720457Y-52764791D02*
X-9720457Y-52645532D01*
X-9720457Y-52645532D02*
X-9660827Y-52526273D01*
X-9660827Y-52526273D02*
X-9601198Y-52466643D01*
X-9601198Y-52466643D02*
X-9481939Y-52407014D01*
X-9481939Y-52407014D02*
X-9064532Y-52407014D01*
X-10316752Y-51751089D02*
X-10316752Y-53003309D01*
X-10316752Y-52407014D02*
X-11032306Y-52407014D01*
X-11032306Y-51751089D02*
X-11032306Y-53003309D01*
X-12284527Y-51751089D02*
X-11568973Y-51751089D01*
X-11926750Y-51751089D02*
X-11926750Y-53003309D01*
X-11926750Y-53003309D02*
X-11807491Y-52824420D01*
X-11807491Y-52824420D02*
X-11688232Y-52705161D01*
X-11688232Y-52705161D02*
X-11568973Y-52645532D01*
X-12701933Y-53003309D02*
X-13536746Y-53003309D01*
X-13536746Y-53003309D02*
X-13000081Y-51751089D01*
X-14610077Y-53003309D02*
X-14013782Y-53003309D01*
X-14013782Y-53003309D02*
X-13954153Y-52407014D01*
X-13954153Y-52407014D02*
X-14013782Y-52466643D01*
X-14013782Y-52466643D02*
X-14133041Y-52526273D01*
X-14133041Y-52526273D02*
X-14431189Y-52526273D01*
X-14431189Y-52526273D02*
X-14550448Y-52466643D01*
X-14550448Y-52466643D02*
X-14610077Y-52407014D01*
X-14610077Y-52407014D02*
X-14669707Y-52287755D01*
X-14669707Y-52287755D02*
X-14669707Y-51989607D01*
X-14669707Y-51989607D02*
X-14610077Y-51870348D01*
X-14610077Y-51870348D02*
X-14550448Y-51810719D01*
X-14550448Y-51810719D02*
X-14431189Y-51751089D01*
X-14431189Y-51751089D02*
X-14133041Y-51751089D01*
X-14133041Y-51751089D02*
X-14013782Y-51810719D01*
X-14013782Y-51810719D02*
X-13954153Y-51870348D01*
X-15444890Y-53003309D02*
X-15564149Y-53003309D01*
X-15564149Y-53003309D02*
X-15683408Y-52943679D01*
X-15683408Y-52943679D02*
X-15743038Y-52884050D01*
X-15743038Y-52884050D02*
X-15802667Y-52764791D01*
X-15802667Y-52764791D02*
X-15862297Y-52526273D01*
X-15862297Y-52526273D02*
X-15862297Y-52228125D01*
X-15862297Y-52228125D02*
X-15802667Y-51989607D01*
X-15802667Y-51989607D02*
X-15743038Y-51870348D01*
X-15743038Y-51870348D02*
X-15683408Y-51810719D01*
X-15683408Y-51810719D02*
X-15564149Y-51751089D01*
X-15564149Y-51751089D02*
X-15444890Y-51751089D01*
X-15444890Y-51751089D02*
X-15325631Y-51810719D01*
X-15325631Y-51810719D02*
X-15266002Y-51870348D01*
X-15266002Y-51870348D02*
X-15206372Y-51989607D01*
X-15206372Y-51989607D02*
X-15146743Y-52228125D01*
X-15146743Y-52228125D02*
X-15146743Y-52526273D01*
X-15146743Y-52526273D02*
X-15206372Y-52764791D01*
X-15206372Y-52764791D02*
X-15266002Y-52884050D01*
X-15266002Y-52884050D02*
X-15325631Y-52943679D01*
X-15325631Y-52943679D02*
X-15444890Y-53003309D01*
D12*
X-5126625Y-37174838D02*
X-5417878Y-36301078D01*
X-5417878Y-36301078D02*
X-5709131Y-37174838D01*
X-6000385Y-36301078D02*
X-6000385Y-37174838D01*
X-6416461Y-36301078D02*
X-6416461Y-37174838D01*
X-6416461Y-37174838D02*
X-6915752Y-36301078D01*
X-6915752Y-36301078D02*
X-6915752Y-37174838D01*
X-10497877Y-37133230D02*
X-10414662Y-37174838D01*
X-10414662Y-37174838D02*
X-10289839Y-37174838D01*
X-10289839Y-37174838D02*
X-10165016Y-37133230D01*
X-10165016Y-37133230D02*
X-10081801Y-37050015D01*
X-10081801Y-37050015D02*
X-10040194Y-36966800D01*
X-10040194Y-36966800D02*
X-9998586Y-36800369D01*
X-9998586Y-36800369D02*
X-9998586Y-36675546D01*
X-9998586Y-36675546D02*
X-10040194Y-36509116D01*
X-10040194Y-36509116D02*
X-10081801Y-36425901D01*
X-10081801Y-36425901D02*
X-10165016Y-36342686D01*
X-10165016Y-36342686D02*
X-10289839Y-36301078D01*
X-10289839Y-36301078D02*
X-10373055Y-36301078D01*
X-10373055Y-36301078D02*
X-10497877Y-36342686D01*
X-10497877Y-36342686D02*
X-10539485Y-36384293D01*
X-10539485Y-36384293D02*
X-10539485Y-36675546D01*
X-10539485Y-36675546D02*
X-10373055Y-36675546D01*
X-10913954Y-36301078D02*
X-10913954Y-37174838D01*
X-10913954Y-37174838D02*
X-11413245Y-36301078D01*
X-11413245Y-36301078D02*
X-11413245Y-37174838D01*
X-11829322Y-36301078D02*
X-11829322Y-37174838D01*
X-11829322Y-37174838D02*
X-12037360Y-37174838D01*
X-12037360Y-37174838D02*
X-12162183Y-37133230D01*
X-12162183Y-37133230D02*
X-12245398Y-37050015D01*
X-12245398Y-37050015D02*
X-12287005Y-36966800D01*
X-12287005Y-36966800D02*
X-12328613Y-36800369D01*
X-12328613Y-36800369D02*
X-12328613Y-36675546D01*
X-12328613Y-36675546D02*
X-12287005Y-36509116D01*
X-12287005Y-36509116D02*
X-12245398Y-36425901D01*
X-12245398Y-36425901D02*
X-12162183Y-36342686D01*
X-12162183Y-36342686D02*
X-12037360Y-36301078D01*
X-12037360Y-36301078D02*
X-11829322Y-36301078D01*
X-12663409Y-39644686D02*
X-12788232Y-39603078D01*
X-12788232Y-39603078D02*
X-12996270Y-39603078D01*
X-12996270Y-39603078D02*
X-13079485Y-39644686D01*
X-13079485Y-39644686D02*
X-13121093Y-39686293D01*
X-13121093Y-39686293D02*
X-13162700Y-39769508D01*
X-13162700Y-39769508D02*
X-13162700Y-39852724D01*
X-13162700Y-39852724D02*
X-13121093Y-39935939D01*
X-13121093Y-39935939D02*
X-13079485Y-39977546D01*
X-13079485Y-39977546D02*
X-12996270Y-40019154D01*
X-12996270Y-40019154D02*
X-12829839Y-40060762D01*
X-12829839Y-40060762D02*
X-12746624Y-40102369D01*
X-12746624Y-40102369D02*
X-12705017Y-40143977D01*
X-12705017Y-40143977D02*
X-12663409Y-40227192D01*
X-12663409Y-40227192D02*
X-12663409Y-40310407D01*
X-12663409Y-40310407D02*
X-12705017Y-40393623D01*
X-12705017Y-40393623D02*
X-12746624Y-40435230D01*
X-12746624Y-40435230D02*
X-12829839Y-40476838D01*
X-12829839Y-40476838D02*
X-13037878Y-40476838D01*
X-13037878Y-40476838D02*
X-13162700Y-40435230D01*
X-14036460Y-39686293D02*
X-13994852Y-39644686D01*
X-13994852Y-39644686D02*
X-13870030Y-39603078D01*
X-13870030Y-39603078D02*
X-13786814Y-39603078D01*
X-13786814Y-39603078D02*
X-13661991Y-39644686D01*
X-13661991Y-39644686D02*
X-13578776Y-39727901D01*
X-13578776Y-39727901D02*
X-13537169Y-39811116D01*
X-13537169Y-39811116D02*
X-13495561Y-39977546D01*
X-13495561Y-39977546D02*
X-13495561Y-40102369D01*
X-13495561Y-40102369D02*
X-13537169Y-40268800D01*
X-13537169Y-40268800D02*
X-13578776Y-40352015D01*
X-13578776Y-40352015D02*
X-13661991Y-40435230D01*
X-13661991Y-40435230D02*
X-13786814Y-40476838D01*
X-13786814Y-40476838D02*
X-13870030Y-40476838D01*
X-13870030Y-40476838D02*
X-13994852Y-40435230D01*
X-13994852Y-40435230D02*
X-14036460Y-40393623D01*
X-14827005Y-39603078D02*
X-14410929Y-39603078D01*
X-14410929Y-39603078D02*
X-14410929Y-40476838D01*
X-15309606Y-36342686D02*
X-15434429Y-36301078D01*
X-15434429Y-36301078D02*
X-15642467Y-36301078D01*
X-15642467Y-36301078D02*
X-15725682Y-36342686D01*
X-15725682Y-36342686D02*
X-15767290Y-36384293D01*
X-15767290Y-36384293D02*
X-15808897Y-36467508D01*
X-15808897Y-36467508D02*
X-15808897Y-36550724D01*
X-15808897Y-36550724D02*
X-15767290Y-36633939D01*
X-15767290Y-36633939D02*
X-15725682Y-36675546D01*
X-15725682Y-36675546D02*
X-15642467Y-36717154D01*
X-15642467Y-36717154D02*
X-15476036Y-36758762D01*
X-15476036Y-36758762D02*
X-15392821Y-36800369D01*
X-15392821Y-36800369D02*
X-15351214Y-36841977D01*
X-15351214Y-36841977D02*
X-15309606Y-36925192D01*
X-15309606Y-36925192D02*
X-15309606Y-37008407D01*
X-15309606Y-37008407D02*
X-15351214Y-37091623D01*
X-15351214Y-37091623D02*
X-15392821Y-37133230D01*
X-15392821Y-37133230D02*
X-15476036Y-37174838D01*
X-15476036Y-37174838D02*
X-15684075Y-37174838D01*
X-15684075Y-37174838D02*
X-15808897Y-37133230D01*
X-16183366Y-36301078D02*
X-16183366Y-37174838D01*
X-16183366Y-37174838D02*
X-16391404Y-37174838D01*
X-16391404Y-37174838D02*
X-16516227Y-37133230D01*
X-16516227Y-37133230D02*
X-16599442Y-37050015D01*
X-16599442Y-37050015D02*
X-16641049Y-36966800D01*
X-16641049Y-36966800D02*
X-16682657Y-36800369D01*
X-16682657Y-36800369D02*
X-16682657Y-36675546D01*
X-16682657Y-36675546D02*
X-16641049Y-36509116D01*
X-16641049Y-36509116D02*
X-16599442Y-36425901D01*
X-16599442Y-36425901D02*
X-16516227Y-36342686D01*
X-16516227Y-36342686D02*
X-16391404Y-36301078D01*
X-16391404Y-36301078D02*
X-16183366Y-36301078D01*
X-17015518Y-36550724D02*
X-17431594Y-36550724D01*
X-16932303Y-36301078D02*
X-17223556Y-37174838D01*
X-17223556Y-37174838D02*
X-17514809Y-36301078D01*
D10*
X-1354285Y39575300D02*
X-1211428Y39527680D01*
X-1211428Y39527680D02*
X-973333Y39527680D01*
X-973333Y39527680D02*
X-878095Y39575300D01*
X-878095Y39575300D02*
X-830476Y39622919D01*
X-830476Y39622919D02*
X-782857Y39718157D01*
X-782857Y39718157D02*
X-782857Y39813395D01*
X-782857Y39813395D02*
X-830476Y39908633D01*
X-830476Y39908633D02*
X-878095Y39956252D01*
X-878095Y39956252D02*
X-973333Y40003871D01*
X-973333Y40003871D02*
X-1163809Y40051490D01*
X-1163809Y40051490D02*
X-1259047Y40099109D01*
X-1259047Y40099109D02*
X-1306666Y40146728D01*
X-1306666Y40146728D02*
X-1354285Y40241966D01*
X-1354285Y40241966D02*
X-1354285Y40337204D01*
X-1354285Y40337204D02*
X-1306666Y40432442D01*
X-1306666Y40432442D02*
X-1259047Y40480061D01*
X-1259047Y40480061D02*
X-1163809Y40527680D01*
X-1163809Y40527680D02*
X-925714Y40527680D01*
X-925714Y40527680D02*
X-782857Y40480061D01*
X-354285Y39527680D02*
X-354285Y40527680D01*
X-354285Y40527680D02*
X26666Y40527680D01*
X26666Y40527680D02*
X121904Y40480061D01*
X121904Y40480061D02*
X169523Y40432442D01*
X169523Y40432442D02*
X217142Y40337204D01*
X217142Y40337204D02*
X217142Y40194347D01*
X217142Y40194347D02*
X169523Y40099109D01*
X169523Y40099109D02*
X121904Y40051490D01*
X121904Y40051490D02*
X26666Y40003871D01*
X26666Y40003871D02*
X-354285Y40003871D01*
X598095Y39575300D02*
X740952Y39527680D01*
X740952Y39527680D02*
X979047Y39527680D01*
X979047Y39527680D02*
X1074285Y39575300D01*
X1074285Y39575300D02*
X1121904Y39622919D01*
X1121904Y39622919D02*
X1169523Y39718157D01*
X1169523Y39718157D02*
X1169523Y39813395D01*
X1169523Y39813395D02*
X1121904Y39908633D01*
X1121904Y39908633D02*
X1074285Y39956252D01*
X1074285Y39956252D02*
X979047Y40003871D01*
X979047Y40003871D02*
X788571Y40051490D01*
X788571Y40051490D02*
X693333Y40099109D01*
X693333Y40099109D02*
X645714Y40146728D01*
X645714Y40146728D02*
X598095Y40241966D01*
X598095Y40241966D02*
X598095Y40337204D01*
X598095Y40337204D02*
X645714Y40432442D01*
X645714Y40432442D02*
X693333Y40480061D01*
X693333Y40480061D02*
X788571Y40527680D01*
X788571Y40527680D02*
X1026666Y40527680D01*
X1026666Y40527680D02*
X1169523Y40480061D01*
X1502857Y40527680D02*
X2121904Y40527680D01*
X2121904Y40527680D02*
X1788571Y40146728D01*
X1788571Y40146728D02*
X1931428Y40146728D01*
X1931428Y40146728D02*
X2026666Y40099109D01*
X2026666Y40099109D02*
X2074285Y40051490D01*
X2074285Y40051490D02*
X2121904Y39956252D01*
X2121904Y39956252D02*
X2121904Y39718157D01*
X2121904Y39718157D02*
X2074285Y39622919D01*
X2074285Y39622919D02*
X2026666Y39575300D01*
X2026666Y39575300D02*
X1931428Y39527680D01*
X1931428Y39527680D02*
X1645714Y39527680D01*
X1645714Y39527680D02*
X1550476Y39575300D01*
X1550476Y39575300D02*
X1502857Y39622919D01*
X2740952Y40527680D02*
X2836190Y40527680D01*
X2836190Y40527680D02*
X2931428Y40480061D01*
X2931428Y40480061D02*
X2979047Y40432442D01*
X2979047Y40432442D02*
X3026666Y40337204D01*
X3026666Y40337204D02*
X3074285Y40146728D01*
X3074285Y40146728D02*
X3074285Y39908633D01*
X3074285Y39908633D02*
X3026666Y39718157D01*
X3026666Y39718157D02*
X2979047Y39622919D01*
X2979047Y39622919D02*
X2931428Y39575300D01*
X2931428Y39575300D02*
X2836190Y39527680D01*
X2836190Y39527680D02*
X2740952Y39527680D01*
X2740952Y39527680D02*
X2645714Y39575300D01*
X2645714Y39575300D02*
X2598095Y39622919D01*
X2598095Y39622919D02*
X2550476Y39718157D01*
X2550476Y39718157D02*
X2502857Y39908633D01*
X2502857Y39908633D02*
X2502857Y40146728D01*
X2502857Y40146728D02*
X2550476Y40337204D01*
X2550476Y40337204D02*
X2598095Y40432442D01*
X2598095Y40432442D02*
X2645714Y40480061D01*
X2645714Y40480061D02*
X2740952Y40527680D01*
D15*
%TO.C,U1*%
X-13396800Y-5248400D02*
X-13374100Y30587970D01*
X-11288800Y32671600D02*
X11566200Y32671600D01*
X11468000Y-7460400D02*
X-11187600Y-7460400D01*
X13651500Y30583040D02*
X13628800Y-5302700D01*
X-13374100Y30587970D02*
G75*
G02*
X-11288800Y32671600I2085123J-1494D01*
G01*
X-11187600Y-7460400D02*
G75*
G02*
X-13396800Y-5248400I1401J2210601D01*
G01*
X11566201Y32671600D02*
G75*
G02*
X13651497Y30583040I-1J-2085300D01*
G01*
X13628800Y-5302699D02*
G75*
G02*
X11468000Y-7460401I-2159940J2239D01*
G01*
D16*
%TO.C,I2C-2*%
X-50590000Y23840000D02*
X-51840000Y23840000D01*
X-53140000Y23540000D02*
X-53140000Y22790000D01*
X-53140000Y22790000D02*
X-54480000Y22790000D01*
X-50590000Y22590000D02*
X-50590000Y23840000D01*
X-56090000Y17240000D02*
X-56090000Y21730000D01*
X-53140000Y11690000D02*
X-56090000Y11690000D01*
X-56090000Y11690000D02*
X-56090000Y17240000D01*
X-53140000Y10940000D02*
X-53140000Y11690000D01*
X-50880000Y23550000D02*
X-56850000Y23550000D01*
X-56850000Y10930000D01*
X-50880000Y10930000D01*
X-50880000Y23550000D01*
X-50890000Y23540000D02*
X-51640000Y23540000D01*
X-51640000Y21740000D01*
X-50890000Y21740000D01*
X-50890000Y23540000D01*
X-50890000Y20240000D02*
X-51640000Y20240000D01*
X-51640000Y14240000D01*
X-50890000Y14240000D01*
X-50890000Y20240000D01*
X-50890000Y12740000D02*
X-51640000Y12740000D01*
X-51640000Y10940000D01*
X-50890000Y10940000D01*
X-50890000Y12740000D01*
%TO.C,I2C-1*%
X-50720000Y850000D02*
X-51970000Y850000D01*
X-53270000Y550000D02*
X-53270000Y-200000D01*
X-53270000Y-200000D02*
X-54610000Y-200000D01*
X-50720000Y-400000D02*
X-50720000Y850000D01*
X-56220000Y-5750000D02*
X-56220000Y-1260000D01*
X-53270000Y-11300000D02*
X-56220000Y-11300000D01*
X-56220000Y-11300000D02*
X-56220000Y-5750000D01*
X-53270000Y-12050000D02*
X-53270000Y-11300000D01*
X-51010000Y560000D02*
X-56980000Y560000D01*
X-56980000Y-12060000D01*
X-51010000Y-12060000D01*
X-51010000Y560000D01*
X-51020000Y550000D02*
X-51770000Y550000D01*
X-51770000Y-1250000D01*
X-51020000Y-1250000D01*
X-51020000Y550000D01*
X-51020000Y-2750000D02*
X-51770000Y-2750000D01*
X-51770000Y-8750000D01*
X-51020000Y-8750000D01*
X-51020000Y-2750000D01*
X-51020000Y-10250000D02*
X-51770000Y-10250000D01*
X-51770000Y-12050000D01*
X-51020000Y-12050000D01*
X-51020000Y-10250000D01*
%TO.C,ZX-MPU1*%
D11*
X-27355000Y-32495000D02*
X-5765000Y-32495000D01*
X-5765000Y-13445000D01*
X-27355000Y-13445000D01*
X-27355000Y-32495000D01*
D17*
%TO.C,GYBME1*%
X11170000Y-48980000D02*
X11170000Y-37550000D01*
X13710000Y-35010000D02*
X26410000Y-35010000D01*
X26410000Y-51520000D02*
X13710000Y-51520000D01*
X28950000Y-37550000D02*
X28950000Y-48980000D01*
X11170000Y-37550000D02*
G75*
G02*
X13710000Y-35010007I2539998J-5D01*
G01*
X13710000Y-51520000D02*
G75*
G02*
X11169993Y-48980000I-2J2540005D01*
G01*
X26410000Y-35010000D02*
G75*
G02*
X28950000Y-37550000I3J-2539997D01*
G01*
X28950000Y-48980000D02*
G75*
G02*
X26410000Y-51520000I-2540001J1D01*
G01*
%TO.C,LightSensor1*%
X-25133600Y-38348900D02*
X-25133600Y-51048900D01*
X-22593600Y-53588900D02*
X-2273600Y-53588900D01*
X-2273600Y-35808900D02*
X-22593600Y-35808900D01*
X266400Y-51048900D02*
X266400Y-38348900D01*
X-25133600Y-38348900D02*
G75*
G02*
X-22593600Y-35808900I2540000J0D01*
G01*
X-22593600Y-53588900D02*
G75*
G02*
X-25133600Y-51048900I0J2540000D01*
G01*
X-2273600Y-35808900D02*
G75*
G02*
X266400Y-38348900I0J-2540000D01*
G01*
X266400Y-51048900D02*
G75*
G02*
X-2273600Y-53588900I-2540000J0D01*
G01*
D16*
%TO.C,SPS30*%
X-11760000Y51022500D02*
X10560000Y51022500D01*
X-11760000Y40982500D02*
X-11760000Y51022500D01*
X11160000Y51022500D02*
X13480000Y51022500D01*
X13480000Y51022500D02*
X13480000Y40982500D01*
X13480000Y50402500D02*
X-11760000Y50402500D01*
X13480000Y48902500D02*
X-11760000Y48902500D01*
X13480000Y44002500D02*
X-11760000Y44002500D01*
X13480000Y40982500D02*
X-11760000Y40982500D01*
X10860000Y51022500D02*
X10420000Y51632500D01*
X11300000Y51632500D01*
X10860000Y51022500D01*
G36*
X10860000Y51022500D02*
G01*
X10420000Y51632500D01*
X11300000Y51632500D01*
X10860000Y51022500D01*
G37*
%TD*%
M02*
