%TF.GenerationSoftware,KiCad,Pcbnew,9.0.7*%
%TF.CreationDate,2026-04-20T11:40:19+02:00*%
%TF.ProjectId,Second board,5365636f-6e64-4206-926f-6172642e6b69,rev?*%
%TF.SameCoordinates,Original*%
%TF.FileFunction,Legend,Bot*%
%TF.FilePolarity,Positive*%
%FSLAX46Y46*%
G04 Gerber Fmt 4.6, Leading zero omitted, Abs format (unit mm)*
G04 Created by KiCad (PCBNEW 9.0.7) date 2026-04-20 11:40:19*
%MOMM*%
%LPD*%
G01*
G04 APERTURE LIST*
%ADD10C,0.121920*%
%ADD11C,0.150000*%
%ADD12C,0.120000*%
G04 APERTURE END LIST*
D10*
X-19225075Y-37184700D02*
X-18927048Y-36290620D01*
X-18927048Y-36290620D02*
X-18629022Y-37184700D01*
X-17905243Y-36290620D02*
X-18330995Y-36290620D01*
X-18330995Y-36290620D02*
X-18330995Y-37184700D01*
X-17479491Y-36290620D02*
X-17564641Y-36333196D01*
X-17564641Y-36333196D02*
X-17607216Y-36375771D01*
X-17607216Y-36375771D02*
X-17649792Y-36460921D01*
X-17649792Y-36460921D02*
X-17649792Y-36716373D01*
X-17649792Y-36716373D02*
X-17607216Y-36801523D01*
X-17607216Y-36801523D02*
X-17564641Y-36844098D01*
X-17564641Y-36844098D02*
X-17479491Y-36886674D01*
X-17479491Y-36886674D02*
X-17351765Y-36886674D01*
X-17351765Y-36886674D02*
X-17266614Y-36844098D01*
X-17266614Y-36844098D02*
X-17224039Y-36801523D01*
X-17224039Y-36801523D02*
X-17181464Y-36716373D01*
X-17181464Y-36716373D02*
X-17181464Y-36460921D01*
X-17181464Y-36460921D02*
X-17224039Y-36375771D01*
X-17224039Y-36375771D02*
X-17266614Y-36333196D01*
X-17266614Y-36333196D02*
X-17351765Y-36290620D01*
X-17351765Y-36290620D02*
X-17479491Y-36290620D01*
X-16415109Y-36886674D02*
X-16415109Y-36162895D01*
X-16415109Y-36162895D02*
X-16457684Y-36077744D01*
X-16457684Y-36077744D02*
X-16500260Y-36035169D01*
X-16500260Y-36035169D02*
X-16585410Y-35992594D01*
X-16585410Y-35992594D02*
X-16713136Y-35992594D01*
X-16713136Y-35992594D02*
X-16798286Y-36035169D01*
X-16415109Y-36333196D02*
X-16500260Y-36290620D01*
X-16500260Y-36290620D02*
X-16670561Y-36290620D01*
X-16670561Y-36290620D02*
X-16755711Y-36333196D01*
X-16755711Y-36333196D02*
X-16798286Y-36375771D01*
X-16798286Y-36375771D02*
X-16840862Y-36460921D01*
X-16840862Y-36460921D02*
X-16840862Y-36716373D01*
X-16840862Y-36716373D02*
X-16798286Y-36801523D01*
X-16798286Y-36801523D02*
X-16755711Y-36844098D01*
X-16755711Y-36844098D02*
X-16670561Y-36886674D01*
X-16670561Y-36886674D02*
X-16500260Y-36886674D01*
X-16500260Y-36886674D02*
X-16415109Y-36844098D01*
X-15989356Y-36290620D02*
X-15989356Y-36886674D01*
X-15989356Y-37184700D02*
X-16031932Y-37142125D01*
X-16031932Y-37142125D02*
X-15989356Y-37099550D01*
X-15989356Y-37099550D02*
X-15946781Y-37142125D01*
X-15946781Y-37142125D02*
X-15989356Y-37184700D01*
X-15989356Y-37184700D02*
X-15989356Y-37099550D01*
X-15180427Y-36333196D02*
X-15265578Y-36290620D01*
X-15265578Y-36290620D02*
X-15435879Y-36290620D01*
X-15435879Y-36290620D02*
X-15521029Y-36333196D01*
X-15521029Y-36333196D02*
X-15563604Y-36375771D01*
X-15563604Y-36375771D02*
X-15606180Y-36460921D01*
X-15606180Y-36460921D02*
X-15606180Y-36716373D01*
X-15606180Y-36716373D02*
X-15563604Y-36801523D01*
X-15563604Y-36801523D02*
X-15521029Y-36844098D01*
X-15521029Y-36844098D02*
X-15435879Y-36886674D01*
X-15435879Y-36886674D02*
X-15265578Y-36886674D01*
X-15265578Y-36886674D02*
X-15180427Y-36844098D01*
X-14158622Y-37227276D02*
X-14924976Y-36077744D01*
X-13988321Y-37184700D02*
X-13690294Y-36290620D01*
X-13690294Y-36290620D02*
X-13392268Y-37184700D01*
X-12711064Y-36333196D02*
X-12796215Y-36290620D01*
X-12796215Y-36290620D02*
X-12966516Y-36290620D01*
X-12966516Y-36290620D02*
X-13051666Y-36333196D01*
X-13051666Y-36333196D02*
X-13094241Y-36375771D01*
X-13094241Y-36375771D02*
X-13136817Y-36460921D01*
X-13136817Y-36460921D02*
X-13136817Y-36716373D01*
X-13136817Y-36716373D02*
X-13094241Y-36801523D01*
X-13094241Y-36801523D02*
X-13051666Y-36844098D01*
X-13051666Y-36844098D02*
X-12966516Y-36886674D01*
X-12966516Y-36886674D02*
X-12796215Y-36886674D01*
X-12796215Y-36886674D02*
X-12711064Y-36844098D01*
X-11944710Y-36333196D02*
X-12029861Y-36290620D01*
X-12029861Y-36290620D02*
X-12200162Y-36290620D01*
X-12200162Y-36290620D02*
X-12285312Y-36333196D01*
X-12285312Y-36333196D02*
X-12327887Y-36375771D01*
X-12327887Y-36375771D02*
X-12370463Y-36460921D01*
X-12370463Y-36460921D02*
X-12370463Y-36716373D01*
X-12370463Y-36716373D02*
X-12327887Y-36801523D01*
X-12327887Y-36801523D02*
X-12285312Y-36844098D01*
X-12285312Y-36844098D02*
X-12200162Y-36886674D01*
X-12200162Y-36886674D02*
X-12029861Y-36886674D01*
X-12029861Y-36886674D02*
X-11944710Y-36844098D01*
X-11561533Y-36375771D02*
X-11518958Y-36333196D01*
X-11518958Y-36333196D02*
X-11561533Y-36290620D01*
X-11561533Y-36290620D02*
X-11604109Y-36333196D01*
X-11604109Y-36333196D02*
X-11561533Y-36375771D01*
X-11561533Y-36375771D02*
X-11561533Y-36290620D01*
X-11561533Y-36844098D02*
X-11518958Y-36801523D01*
X-11518958Y-36801523D02*
X-11561533Y-36758948D01*
X-11561533Y-36758948D02*
X-11604109Y-36801523D01*
X-11604109Y-36801523D02*
X-11561533Y-36844098D01*
X-11561533Y-36844098D02*
X-11561533Y-36758948D01*
X-10539728Y-37184700D02*
X-9986250Y-37184700D01*
X-9986250Y-37184700D02*
X-10284276Y-36844098D01*
X-10284276Y-36844098D02*
X-10156551Y-36844098D01*
X-10156551Y-36844098D02*
X-10071400Y-36801523D01*
X-10071400Y-36801523D02*
X-10028825Y-36758948D01*
X-10028825Y-36758948D02*
X-9986250Y-36673797D01*
X-9986250Y-36673797D02*
X-9986250Y-36460921D01*
X-9986250Y-36460921D02*
X-10028825Y-36375771D01*
X-10028825Y-36375771D02*
X-10071400Y-36333196D01*
X-10071400Y-36333196D02*
X-10156551Y-36290620D01*
X-10156551Y-36290620D02*
X-10412002Y-36290620D01*
X-10412002Y-36290620D02*
X-10497153Y-36333196D01*
X-10497153Y-36333196D02*
X-10539728Y-36375771D01*
X-9603072Y-36631222D02*
X-8921869Y-36631222D01*
X-8070364Y-37184700D02*
X-8496116Y-37184700D01*
X-8496116Y-37184700D02*
X-8538692Y-36758948D01*
X-8538692Y-36758948D02*
X-8496116Y-36801523D01*
X-8496116Y-36801523D02*
X-8410966Y-36844098D01*
X-8410966Y-36844098D02*
X-8198090Y-36844098D01*
X-8198090Y-36844098D02*
X-8112939Y-36801523D01*
X-8112939Y-36801523D02*
X-8070364Y-36758948D01*
X-8070364Y-36758948D02*
X-8027789Y-36673797D01*
X-8027789Y-36673797D02*
X-8027789Y-36460921D01*
X-8027789Y-36460921D02*
X-8070364Y-36375771D01*
X-8070364Y-36375771D02*
X-8112939Y-36333196D01*
X-8112939Y-36333196D02*
X-8198090Y-36290620D01*
X-8198090Y-36290620D02*
X-8410966Y-36290620D01*
X-8410966Y-36290620D02*
X-8496116Y-36333196D01*
X-8496116Y-36333196D02*
X-8538692Y-36375771D01*
X-7772337Y-37184700D02*
X-7474310Y-36290620D01*
X-7474310Y-36290620D02*
X-7176284Y-37184700D01*
X-6878257Y-36290620D02*
X-6878257Y-37184700D01*
X-6878257Y-37184700D02*
X-6665381Y-37184700D01*
X-6665381Y-37184700D02*
X-6537655Y-37142125D01*
X-6537655Y-37142125D02*
X-6452505Y-37056975D01*
X-6452505Y-37056975D02*
X-6409930Y-36971824D01*
X-6409930Y-36971824D02*
X-6367354Y-36801523D01*
X-6367354Y-36801523D02*
X-6367354Y-36673797D01*
X-6367354Y-36673797D02*
X-6409930Y-36503496D01*
X-6409930Y-36503496D02*
X-6452505Y-36418346D01*
X-6452505Y-36418346D02*
X-6537655Y-36333196D01*
X-6537655Y-36333196D02*
X-6665381Y-36290620D01*
X-6665381Y-36290620D02*
X-6878257Y-36290620D01*
X-5473274Y-36375771D02*
X-5515850Y-36333196D01*
X-5515850Y-36333196D02*
X-5643575Y-36290620D01*
X-5643575Y-36290620D02*
X-5728726Y-36290620D01*
X-5728726Y-36290620D02*
X-5856452Y-36333196D01*
X-5856452Y-36333196D02*
X-5941602Y-36418346D01*
X-5941602Y-36418346D02*
X-5984177Y-36503496D01*
X-5984177Y-36503496D02*
X-6026753Y-36673797D01*
X-6026753Y-36673797D02*
X-6026753Y-36801523D01*
X-6026753Y-36801523D02*
X-5984177Y-36971824D01*
X-5984177Y-36971824D02*
X-5941602Y-37056975D01*
X-5941602Y-37056975D02*
X-5856452Y-37142125D01*
X-5856452Y-37142125D02*
X-5728726Y-37184700D01*
X-5728726Y-37184700D02*
X-5643575Y-37184700D01*
X-5643575Y-37184700D02*
X-5515850Y-37142125D01*
X-5515850Y-37142125D02*
X-5473274Y-37099550D01*
D11*
X55333333Y14745180D02*
X55333333Y14030895D01*
X55333333Y14030895D02*
X55380952Y13888038D01*
X55380952Y13888038D02*
X55476190Y13792800D01*
X55476190Y13792800D02*
X55619047Y13745180D01*
X55619047Y13745180D02*
X55714285Y13745180D01*
X54952380Y14745180D02*
X54333333Y14745180D01*
X54333333Y14745180D02*
X54666666Y14364228D01*
X54666666Y14364228D02*
X54523809Y14364228D01*
X54523809Y14364228D02*
X54428571Y14316609D01*
X54428571Y14316609D02*
X54380952Y14268990D01*
X54380952Y14268990D02*
X54333333Y14173752D01*
X54333333Y14173752D02*
X54333333Y13935657D01*
X54333333Y13935657D02*
X54380952Y13840419D01*
X54380952Y13840419D02*
X54428571Y13792800D01*
X54428571Y13792800D02*
X54523809Y13745180D01*
X54523809Y13745180D02*
X54809523Y13745180D01*
X54809523Y13745180D02*
X54904761Y13792800D01*
X54904761Y13792800D02*
X54952380Y13840419D01*
D12*
%TO.C,J3*%
X53670000Y12760000D02*
X53670000Y11430000D01*
X53670000Y10160000D02*
X53670000Y-12760000D01*
X55000000Y12760000D02*
X53670000Y12760000D01*
X56330000Y10160000D02*
X53670000Y10160000D01*
X56330000Y10160000D02*
X56330000Y-12760000D01*
X56330000Y-12760000D02*
X53670000Y-12760000D01*
%TD*%
M02*
