M48
; DRILL file {KiCad 9.0.7} date 2026-04-20T11:43:32+0200
; FORMAT={-:-/ absolute / metric / decimal}
; #@! TF.CreationDate,2026-04-20T11:43:32+02:00
; #@! TF.GenerationSoftware,Kicad,Pcbnew,9.0.7
; #@! TF.FileFunction,Plated,1,2,PTH
FMAT,2
METRIC
; #@! TA.AperFunction,Plated,PTH,ComponentDrill
T1C0.800
; #@! TA.AperFunction,Plated,PTH,ComponentDrill
T2C0.900
; #@! TA.AperFunction,Plated,PTH,ComponentDrill
T3C0.950
; #@! TA.AperFunction,Plated,PTH,ComponentDrill
T4C1.000
; #@! TA.AperFunction,Plated,PTH,ComponentDrill
T5C1.300
; #@! TA.AperFunction,Plated,PTH,ComponentDrill
T6C2.200
; #@! TA.AperFunction,Plated,PTH,ComponentDrill
T7C2.500
%
G90
G05
T1
X-11.29Y14.79
X-11.29Y12.25
X-11.29Y9.71
X-11.29Y7.17
X-11.29Y4.63
X-11.29Y2.09
X-11.29Y-0.45
X-11.29Y-2.99
X11.57Y14.79
X11.57Y12.25
X11.57Y9.71
X11.57Y7.17
X11.57Y4.63
X11.57Y2.09
X11.57Y-0.45
X11.57Y-2.99
T2
X-25.45Y-15.35
X-22.91Y-15.35
X-20.37Y-15.35
X-17.83Y-15.35
X-15.29Y-15.35
X-12.75Y-15.35
X-10.21Y-15.35
X-7.67Y-15.35
T3
X-53.47Y-2.0
X-53.47Y-4.5
X-53.47Y-7.0
X-53.47Y-9.5
X-53.34Y20.99
X-53.34Y18.49
X-53.34Y15.99
X-53.34Y13.49
T4
X-18.784Y-38.349
X-16.244Y-38.349
X-13.704Y-38.349
X-11.164Y-38.349
X-8.624Y-38.349
X-6.084Y-38.349
X12.44Y-37.55
X14.98Y-37.55
X17.52Y-37.55
X20.06Y-37.55
X22.6Y-37.55
X25.14Y-37.55
X27.68Y-37.55
X55.0Y11.43
X55.0Y8.89
X55.0Y6.35
X55.0Y3.81
X55.0Y1.27
X55.0Y-1.27
X55.0Y-3.81
X55.0Y-6.35
X55.0Y-8.89
X55.0Y-11.43
T5
X-9.14Y46.302
X-4.14Y46.302
X0.86Y46.302
X5.86Y46.302
X10.86Y46.302
T6
X13.71Y-48.98
X26.41Y-48.98
T7
X-22.594Y-38.349
X-22.594Y-51.049
X-2.274Y-38.349
X-2.274Y-51.049
M30
