%TF.GenerationSoftware,KiCad,Pcbnew,9.0.7*%
%TF.CreationDate,2026-04-20T11:40:19+02:00*%
%TF.ProjectId,Second board,5365636f-6e64-4206-926f-6172642e6b69,rev?*%
%TF.SameCoordinates,Original*%
%TF.FileFunction,Copper,L1,Top*%
%TF.FilePolarity,Positive*%
%FSLAX46Y46*%
G04 Gerber Fmt 4.6, Leading zero omitted, Abs format (unit mm)*
G04 Created by KiCad (PCBNEW 9.0.7) date 2026-04-20 11:40:19*
%MOMM*%
%LPD*%
G01*
G04 APERTURE LIST*
G04 Aperture macros list*
%AMRoundRect*
0 Rectangle with rounded corners*
0 $1 Rounding radius*
0 $2 $3 $4 $5 $6 $7 $8 $9 X,Y pos of 4 corners*
0 Add a 4 corners polygon primitive as box body*
4,1,4,$2,$3,$4,$5,$6,$7,$8,$9,$2,$3,0*
0 Add four circle primitives for the rounded corners*
1,1,$1+$1,$2,$3*
1,1,$1+$1,$4,$5*
1,1,$1+$1,$6,$7*
1,1,$1+$1,$8,$9*
0 Add four rect primitives between the rounded corners*
20,1,$1+$1,$2,$3,$4,$5,0*
20,1,$1+$1,$4,$5,$6,$7,0*
20,1,$1+$1,$6,$7,$8,$9,0*
20,1,$1+$1,$8,$9,$2,$3,0*%
G04 Aperture macros list end*
%TA.AperFunction,ComponentPad*%
%ADD10C,1.930400*%
%TD*%
%TA.AperFunction,ComponentPad*%
%ADD11RoundRect,0.250000X-0.725000X0.600000X-0.725000X-0.600000X0.725000X-0.600000X0.725000X0.600000X0*%
%TD*%
%TA.AperFunction,ComponentPad*%
%ADD12O,1.950000X1.700000*%
%TD*%
%TA.AperFunction,ComponentPad*%
%ADD13C,1.500000*%
%TD*%
%TA.AperFunction,ComponentPad*%
%ADD14R,1.500000X1.500000*%
%TD*%
%TA.AperFunction,ComponentPad*%
%ADD15C,1.778000*%
%TD*%
%TA.AperFunction,ComponentPad*%
%ADD16C,3.000000*%
%TD*%
%TA.AperFunction,ComponentPad*%
%ADD17C,3.200000*%
%TD*%
%TA.AperFunction,ComponentPad*%
%ADD18RoundRect,0.250000X1.050000X1.050000X-1.050000X1.050000X-1.050000X-1.050000X1.050000X-1.050000X0*%
%TD*%
%TA.AperFunction,ComponentPad*%
%ADD19C,2.600000*%
%TD*%
%TA.AperFunction,ComponentPad*%
%ADD20R,1.700000X1.700000*%
%TD*%
%TA.AperFunction,ComponentPad*%
%ADD21C,1.700000*%
%TD*%
%TA.AperFunction,Conductor*%
%ADD22C,0.406400*%
%TD*%
G04 APERTURE END LIST*
D10*
%TO.P,U1,3V3,3V3*%
%TO.N,unconnected-(U1-Pad3V3)*%
X-11290000Y-2990000D03*
%TO.P,U1,5V,5V*%
%TO.N,+5V*%
X11570000Y-2990000D03*
%TO.P,U1,GND,GND*%
%TO.N,unconnected-(U1-PadGND)*%
X-11290000Y4630000D03*
%TO.P,U1,GND1,GND1*%
%TO.N,GND*%
X-11290000Y14790000D03*
%TO.P,U1,GND2,GND2*%
%TO.N,unconnected-(U1-PadGND2)*%
X11570000Y-450000D03*
%TO.P,U1,IO0,IO0*%
%TO.N,unconnected-(U1-PadIO0)*%
X-11290000Y2090000D03*
%TO.P,U1,IO2,IO2*%
%TO.N,unconnected-(U1-PadIO2)*%
X11570000Y12250000D03*
%TO.P,U1,IO4,IO4*%
%TO.N,unconnected-(U1-PadIO4)*%
X11570000Y14790000D03*
%TO.P,U1,IO12,IO12*%
%TO.N,unconnected-(U1-PadIO12)*%
X11570000Y2090000D03*
%TO.P,U1,IO13,IO13*%
%TO.N,unconnected-(U1-PadIO13)*%
X11570000Y4630000D03*
%TO.P,U1,IO14,IO14*%
%TO.N,unconnected-(U1-PadIO14)*%
X11570000Y9710000D03*
%TO.P,U1,IO15,IO15*%
%TO.N,unconnected-(U1-PadIO15)*%
X11570000Y7170000D03*
%TO.P,U1,IO16,IO16*%
%TO.N,unconnected-(U1-PadIO16)*%
X-11290000Y-450000D03*
%TO.P,U1,U0R,U0R*%
%TO.N,Net-(J3-Pin_4)*%
X-11290000Y9710000D03*
%TO.P,U1,U0T,U0T*%
%TO.N,Net-(J3-Pin_3)*%
X-11290000Y12250000D03*
%TO.P,U1,VOUT,VOUT*%
%TO.N,unconnected-(U1-PadVOUT)*%
X-11290000Y7170000D03*
%TD*%
D11*
%TO.P,I2C-2,1,Pin_1*%
%TO.N,Net-(GYBME1-SDI)*%
X-53340000Y20990000D03*
D12*
%TO.P,I2C-2,2,Pin_2*%
%TO.N,Net-(GYBME1-SCK)*%
X-53340000Y18490000D03*
%TO.P,I2C-2,3,Pin_3*%
%TO.N,GND*%
X-53340000Y15990000D03*
%TO.P,I2C-2,4,Pin_4*%
%TO.N,+3.3V*%
X-53340000Y13490000D03*
%TD*%
D11*
%TO.P,I2C-1,1,Pin_1*%
%TO.N,Net-(GYBME1-SDI)*%
X-53470000Y-2000000D03*
D12*
%TO.P,I2C-1,2,Pin_2*%
%TO.N,Net-(GYBME1-SCK)*%
X-53470000Y-4500000D03*
%TO.P,I2C-1,3,Pin_3*%
%TO.N,GND*%
X-53470000Y-7000000D03*
%TO.P,I2C-1,4,Pin_4*%
%TO.N,+5V*%
X-53470000Y-9500000D03*
%TD*%
D13*
%TO.P,ZX-MPU1,1,Vcc*%
%TO.N,+3.3V*%
X-7670000Y-15350000D03*
%TO.P,ZX-MPU1,2,GND*%
%TO.N,GND*%
X-10210000Y-15350000D03*
%TO.P,ZX-MPU1,3,SCL*%
%TO.N,Net-(GYBME1-SCK)*%
X-12750000Y-15350000D03*
%TO.P,ZX-MPU1,4,SDA*%
%TO.N,Net-(GYBME1-SDI)*%
X-15290000Y-15350000D03*
%TO.P,ZX-MPU1,5*%
%TO.N,unconnected-(ZX-MPU1-Pad5)*%
X-17830000Y-15350000D03*
%TO.P,ZX-MPU1,6*%
%TO.N,unconnected-(ZX-MPU1-Pad6)*%
X-20370000Y-15350000D03*
D14*
%TO.P,ZX-MPU1,7*%
%TO.N,unconnected-(ZX-MPU1-Pad7)*%
X-22910000Y-15350000D03*
D13*
%TO.P,ZX-MPU1,8*%
%TO.N,unconnected-(ZX-MPU1-Pad8)*%
X-25450000Y-15350000D03*
%TD*%
D15*
%TO.P,GYBME1,1,Vcc*%
%TO.N,+3.3V*%
X27680000Y-37550000D03*
%TO.P,GYBME1,2,3.3*%
%TO.N,GND*%
X25140000Y-37550000D03*
%TO.P,GYBME1,3,GND*%
%TO.N,unconnected-(GYBME1-GND-Pad3)*%
X22600000Y-37550000D03*
%TO.P,GYBME1,4,SCK*%
%TO.N,Net-(GYBME1-SCK)*%
X20060000Y-37550000D03*
%TO.P,GYBME1,5,SDO*%
%TO.N,unconnected-(GYBME1-SDO-Pad5)*%
X17520000Y-37550000D03*
%TO.P,GYBME1,6,SDI*%
%TO.N,Net-(GYBME1-SDI)*%
X14980000Y-37550000D03*
%TO.P,GYBME1,7,CS*%
%TO.N,unconnected-(GYBME1-CS-Pad7)*%
X12440000Y-37550000D03*
D16*
%TO.P,GYBME1,P$1*%
%TO.N,N/C*%
X26410000Y-48980000D03*
X13710000Y-48980000D03*
%TD*%
D15*
%TO.P,LightSensor1,1,Vin*%
%TO.N,+5V*%
X-6083600Y-38348900D03*
%TO.P,LightSensor1,2,3V3*%
%TO.N,unconnected-(LightSensor1-3V3-Pad2)*%
X-8623600Y-38348900D03*
%TO.P,LightSensor1,3,GND*%
%TO.N,GND*%
X-11163600Y-38348900D03*
%TO.P,LightSensor1,4,SCL*%
%TO.N,Net-(GYBME1-SCK)*%
X-13703600Y-38348900D03*
%TO.P,LightSensor1,5,SDA*%
%TO.N,Net-(GYBME1-SDI)*%
X-16243600Y-38348900D03*
%TO.P,LightSensor1,6,ADDR*%
%TO.N,unconnected-(LightSensor1-ADDR-Pad6)*%
X-18783600Y-38348900D03*
D17*
%TO.P,LightSensor1,P$1*%
%TO.N,N/C*%
X-2273600Y-51048900D03*
X-2273600Y-38348900D03*
X-22593600Y-51048900D03*
X-22593600Y-38348900D03*
%TD*%
D18*
%TO.P,SPS30,1,Pin_1*%
%TO.N,+5V*%
X10860000Y46302500D03*
D19*
%TO.P,SPS30,2,Pin_2*%
%TO.N,Net-(GYBME1-SDI)*%
X5860000Y46302500D03*
%TO.P,SPS30,3,Pin_3*%
%TO.N,Net-(GYBME1-SCK)*%
X860000Y46302500D03*
%TO.P,SPS30,4,Pin_4*%
%TO.N,GND*%
X-4140000Y46302500D03*
%TO.P,SPS30,5,Pin_5*%
X-9140000Y46302500D03*
%TD*%
D20*
%TO.P,J3,1,Pin_1*%
%TO.N,unconnected-(J3-Pin_1-Pad1)*%
X55000000Y11430000D03*
D21*
%TO.P,J3,2,Pin_2*%
%TO.N,unconnected-(J3-Pin_2-Pad2)*%
X55000000Y8890000D03*
%TO.P,J3,3,Pin_3*%
%TO.N,Net-(J3-Pin_3)*%
X55000000Y6350000D03*
%TO.P,J3,4,Pin_4*%
%TO.N,Net-(J3-Pin_4)*%
X55000000Y3810000D03*
%TO.P,J3,5,Pin_5*%
%TO.N,Net-(GYBME1-SCK)*%
X55000000Y1270000D03*
%TO.P,J3,6,Pin_6*%
%TO.N,Net-(GYBME1-SDI)*%
X55000000Y-1270000D03*
%TO.P,J3,7,Pin_7*%
%TO.N,GND*%
X55000000Y-3810000D03*
%TO.P,J3,8,Pin_8*%
%TO.N,+3.3V*%
X55000000Y-6350000D03*
%TO.P,J3,9,Pin_9*%
%TO.N,+5V*%
X55000000Y-8890000D03*
%TO.P,J3,10,Pin_10*%
X55000000Y-11430000D03*
%TD*%
D22*
%TO.N,Net-(GYBME1-SCK)*%
X61000000Y-4730000D02*
X55000000Y1270000D01*
X61000000Y-9000000D02*
X61000000Y-4730000D01*
X50615000Y-19385000D02*
X61000000Y-9000000D01*
X19000000Y-24000000D02*
X29000000Y-24000000D01*
X33615000Y-19385000D02*
X50615000Y-19385000D01*
X8600000Y-39910000D02*
X8600000Y-34400000D01*
X7942128Y-40567872D02*
X8600000Y-39910000D01*
X2190000Y-40567872D02*
X7942128Y-40567872D01*
X8600000Y-34400000D02*
X19000000Y-24000000D01*
X29000000Y-24000000D02*
X33615000Y-19385000D01*
%TO.N,Net-(GYBME1-SDI)*%
X47470000Y-8800000D02*
X55000000Y-1270000D01*
X-15250000Y25192500D02*
X-15250000Y-8800000D01*
X5860000Y46302500D02*
X-15250000Y25192500D01*
X-15250000Y-8800000D02*
X47470000Y-8800000D01*
%TO.N,Net-(J3-Pin_4)*%
X56607400Y5417400D02*
X55000000Y3810000D01*
X56607400Y15751593D02*
X56607400Y5417400D01*
X52358993Y20000000D02*
X56607400Y15751593D01*
X16000000Y20000000D02*
X52358993Y20000000D01*
X14000000Y22000000D02*
X16000000Y20000000D01*
X-13500000Y17000000D02*
X-8500000Y22000000D01*
X-13500000Y11920000D02*
X-13500000Y17000000D01*
X-8500000Y22000000D02*
X14000000Y22000000D01*
X-11290000Y9710000D02*
X-13500000Y11920000D01*
%TO.N,Net-(J3-Pin_3)*%
X53350000Y8000000D02*
X55000000Y6350000D01*
X33000000Y15500000D02*
X40500000Y8000000D01*
X28500000Y15500000D02*
X33000000Y15500000D01*
X40500000Y8000000D02*
X53350000Y8000000D01*
X14130000Y15500000D02*
X28500000Y15500000D01*
X12315000Y17315000D02*
X14130000Y15500000D01*
X6445000Y17315000D02*
X12315000Y17315000D01*
X1380000Y12250000D02*
X6445000Y17315000D01*
X-11290000Y12250000D02*
X1380000Y12250000D01*
%TO.N,Net-(GYBME1-SCK)*%
X-44490000Y18490000D02*
X-53340000Y18490000D01*
X-41990000Y15990000D02*
X-44490000Y18490000D01*
X-41650000Y15990000D02*
X-41990000Y15990000D01*
X-41650000Y4820000D02*
X-50970000Y-4500000D01*
X-50970000Y-4500000D02*
X-53470000Y-4500000D01*
X-29271250Y1171250D02*
X-29271250Y16171250D01*
X-12750000Y-15350000D02*
X-12750000Y-37395300D01*
X2190000Y-40567872D02*
X17042128Y-40567872D01*
X17042128Y-40567872D02*
X20060000Y-37550000D01*
X-12750000Y-15350000D02*
X-29271250Y1171250D01*
X-11484628Y-40567872D02*
X2190000Y-40567872D01*
X-41650000Y15990000D02*
X-29452500Y15990000D01*
X-29452500Y15990000D02*
X-29271250Y16171250D01*
X-29271250Y16171250D02*
X860000Y46302500D01*
X-13703600Y-38348900D02*
X-11484628Y-40567872D01*
X-41650000Y4820000D02*
X-41650000Y15990000D01*
X-12750000Y-37395300D02*
X-13703600Y-38348900D01*
%TO.N,Net-(GYBME1-SDI)*%
X-56250000Y-2000000D02*
X-59550000Y1300000D01*
X-13417228Y-41175272D02*
X29494728Y-41175272D01*
X-59550000Y16430000D02*
X-54990000Y20990000D01*
X-59550000Y1570000D02*
X-59550000Y16430000D01*
X-15290000Y-37395300D02*
X-16243600Y-38348900D01*
X-8220000Y52630000D02*
X-467500Y52630000D01*
X-15290000Y-15350000D02*
X-15290000Y-37395300D01*
X-59550000Y1300000D02*
X-59550000Y1570000D01*
X-59550000Y1300000D02*
X-59550000Y-15350000D01*
X-39860000Y20990000D02*
X-8220000Y52630000D01*
X-59550000Y-15350000D02*
X-53150000Y-21750000D01*
X-42150000Y-21750000D02*
X-28640000Y-8240000D01*
X-28520000Y-8120000D02*
X-22520000Y-8120000D01*
X-467500Y52630000D02*
X5860000Y46302500D01*
X31220000Y-39450000D02*
X31220000Y-34590000D01*
X-53150000Y-21750000D02*
X-42150000Y-21750000D01*
X19490000Y-33040000D02*
X14980000Y-37550000D01*
X29670000Y-33040000D02*
X19490000Y-33040000D01*
X-28640000Y-8240000D02*
X-28520000Y-8120000D01*
X-53470000Y-2000000D02*
X-56250000Y-2000000D01*
X-16243600Y-38348900D02*
X-13417228Y-41175272D01*
X29494728Y-41175272D02*
X31220000Y-39450000D01*
X31220000Y-34590000D02*
X29670000Y-33040000D01*
X-54990000Y20990000D02*
X-53340000Y20990000D01*
X-15290000Y-15350000D02*
X-22520000Y-8120000D01*
X-53340000Y20990000D02*
X-39860000Y20990000D01*
%TD*%
M02*
