M48
; DRILL file {KiCad 9.0.7} date 2026-04-20T12:05:07+0200
; FORMAT={-:-/ absolute / metric / decimal}
; #@! TF.CreationDate,2026-04-20T12:05:07+02:00
; #@! TF.GenerationSoftware,Kicad,Pcbnew,9.0.7
; #@! TF.FileFunction,Plated,1,2,PTH
FMAT,2
METRIC
; #@! TA.AperFunction,Plated,PTH,ComponentDrill
T1C0.900
; #@! TA.AperFunction,Plated,PTH,ComponentDrill
T2C1.000
; #@! TA.AperFunction,Plated,PTH,ComponentDrill
T3C1.016
; #@! TA.AperFunction,Plated,PTH,ComponentDrill
T4C1.200
; #@! TA.AperFunction,Plated,PTH,ComponentDrill
T5C2.500
%
G90
G05
T1
X-26.92Y-24.91
X-26.92Y-42.69
X-21.643Y28.19
X-21.643Y25.65
X-21.643Y23.11
X-21.643Y20.57
X-21.643Y18.03
X-21.643Y15.49
X-21.643Y12.95
X-21.643Y10.41
X13.72Y-24.91
X13.72Y-42.69
X20.15Y-30.1
X20.15Y-32.64
X20.15Y-35.18
X20.15Y-37.72
X20.15Y-40.26
X20.15Y-42.8
X30.31Y-30.1
X30.31Y-32.64
X30.31Y-35.18
X30.31Y-37.72
X30.31Y-40.26
X30.31Y-42.8
X43.94Y-9.09
X43.94Y-11.63
X43.94Y-14.17
X43.94Y-16.71
X43.94Y-19.25
X43.94Y-21.79
T2
X-46.54Y0.0
X-46.54Y-15.24
X-44.0Y0.0
X-44.0Y-15.24
X-41.46Y0.0
X-41.46Y-15.24
X-38.92Y0.0
X-38.92Y-15.24
X-36.38Y0.0
X-36.38Y-15.24
X-33.84Y0.0
X-33.84Y-15.24
X-31.3Y0.0
X-31.3Y-15.24
X-14.973Y60.11
X-14.973Y57.57
X-14.973Y55.03
X-14.973Y52.49
X-14.973Y49.95
X-14.973Y47.41
X-14.973Y44.87
X-14.973Y42.33
X-14.973Y39.79
X55.0Y11.43
X55.0Y8.89
X55.0Y6.35
X55.0Y3.81
X55.0Y1.27
X55.0Y-1.27
X55.0Y-3.81
X55.0Y-6.35
X55.0Y-8.89
X55.0Y-11.43
T3
X-11.36Y28.8
X-11.36Y26.26
X-11.36Y23.72
X-11.36Y21.18
X-11.36Y18.64
X-11.36Y16.1
X-11.36Y13.56
X-11.36Y11.02
X-11.36Y8.48
X-11.36Y5.94
X-11.36Y3.4
X-11.36Y0.86
X-11.36Y-1.68
X-11.36Y-4.22
X-11.36Y-6.76
X-11.36Y-9.3
X-11.36Y-11.84
X11.5Y28.8
X11.5Y26.26
X11.5Y23.72
X11.5Y21.18
X11.5Y18.64
X11.5Y16.1
X11.5Y13.56
X11.5Y11.02
X11.5Y8.48
X11.5Y5.94
X11.5Y3.4
X11.5Y0.86
X11.5Y-1.68
X11.5Y-4.22
X11.5Y-6.76
X11.5Y-9.3
X11.5Y-11.84
T4
X-11.5Y-54.0
X-8.0Y-54.0
X-4.5Y-54.0
X-1.0Y-54.0
X10.268Y-53.642
X13.768Y-53.642
T5
X14.745Y60.11
X14.745Y39.79
M30
