%TF.GenerationSoftware,KiCad,Pcbnew,9.0.7*%
%TF.CreationDate,2026-04-20T12:04:54+02:00*%
%TF.ProjectId,Sailowtech,5361696c-6f77-4746-9563-682e6b696361,rev?*%
%TF.SameCoordinates,Original*%
%TF.FileFunction,Legend,Top*%
%TF.FilePolarity,Positive*%
%FSLAX46Y46*%
G04 Gerber Fmt 4.6, Leading zero omitted, Abs format (unit mm)*
G04 Created by KiCad (PCBNEW 9.0.7) date 2026-04-20 12:04:54*
%MOMM*%
%LPD*%
G01*
G04 APERTURE LIST*
%ADD10C,0.100000*%
%ADD11C,0.150000*%
%ADD12C,0.120000*%
%ADD13C,0.127000*%
%ADD14C,0.200000*%
G04 APERTURE END LIST*
D10*
X32819999Y-3237180D02*
X32772380Y-3284800D01*
X32772380Y-3284800D02*
X32629523Y-3332419D01*
X32629523Y-3332419D02*
X32534285Y-3332419D01*
X32534285Y-3332419D02*
X32391428Y-3284800D01*
X32391428Y-3284800D02*
X32296190Y-3189561D01*
X32296190Y-3189561D02*
X32248571Y-3094323D01*
X32248571Y-3094323D02*
X32200952Y-2903847D01*
X32200952Y-2903847D02*
X32200952Y-2760990D01*
X32200952Y-2760990D02*
X32248571Y-2570514D01*
X32248571Y-2570514D02*
X32296190Y-2475276D01*
X32296190Y-2475276D02*
X32391428Y-2380038D01*
X32391428Y-2380038D02*
X32534285Y-2332419D01*
X32534285Y-2332419D02*
X32629523Y-2332419D01*
X32629523Y-2332419D02*
X32772380Y-2380038D01*
X32772380Y-2380038D02*
X32819999Y-2427657D01*
X33200952Y-3046704D02*
X33677142Y-3046704D01*
X33105714Y-3332419D02*
X33439047Y-2332419D01*
X33439047Y-2332419D02*
X33772380Y-3332419D01*
X34105714Y-3332419D02*
X34105714Y-2332419D01*
X34105714Y-2332419D02*
X34677142Y-3332419D01*
X34677142Y-3332419D02*
X34677142Y-2332419D01*
X34915238Y-3427657D02*
X35677142Y-3427657D01*
X35772381Y-2332419D02*
X36343809Y-2332419D01*
X36058095Y-3332419D02*
X36058095Y-2332419D01*
X36677143Y-3332419D02*
X36677143Y-2665752D01*
X36677143Y-2856228D02*
X36724762Y-2760990D01*
X36724762Y-2760990D02*
X36772381Y-2713371D01*
X36772381Y-2713371D02*
X36867619Y-2665752D01*
X36867619Y-2665752D02*
X36962857Y-2665752D01*
X37724762Y-3332419D02*
X37724762Y-2808609D01*
X37724762Y-2808609D02*
X37677143Y-2713371D01*
X37677143Y-2713371D02*
X37581905Y-2665752D01*
X37581905Y-2665752D02*
X37391429Y-2665752D01*
X37391429Y-2665752D02*
X37296191Y-2713371D01*
X37724762Y-3284800D02*
X37629524Y-3332419D01*
X37629524Y-3332419D02*
X37391429Y-3332419D01*
X37391429Y-3332419D02*
X37296191Y-3284800D01*
X37296191Y-3284800D02*
X37248572Y-3189561D01*
X37248572Y-3189561D02*
X37248572Y-3094323D01*
X37248572Y-3094323D02*
X37296191Y-2999085D01*
X37296191Y-2999085D02*
X37391429Y-2951466D01*
X37391429Y-2951466D02*
X37629524Y-2951466D01*
X37629524Y-2951466D02*
X37724762Y-2903847D01*
X38200953Y-2665752D02*
X38200953Y-3332419D01*
X38200953Y-2760990D02*
X38248572Y-2713371D01*
X38248572Y-2713371D02*
X38343810Y-2665752D01*
X38343810Y-2665752D02*
X38486667Y-2665752D01*
X38486667Y-2665752D02*
X38581905Y-2713371D01*
X38581905Y-2713371D02*
X38629524Y-2808609D01*
X38629524Y-2808609D02*
X38629524Y-3332419D01*
X39058096Y-3284800D02*
X39153334Y-3332419D01*
X39153334Y-3332419D02*
X39343810Y-3332419D01*
X39343810Y-3332419D02*
X39439048Y-3284800D01*
X39439048Y-3284800D02*
X39486667Y-3189561D01*
X39486667Y-3189561D02*
X39486667Y-3141942D01*
X39486667Y-3141942D02*
X39439048Y-3046704D01*
X39439048Y-3046704D02*
X39343810Y-2999085D01*
X39343810Y-2999085D02*
X39200953Y-2999085D01*
X39200953Y-2999085D02*
X39105715Y-2951466D01*
X39105715Y-2951466D02*
X39058096Y-2856228D01*
X39058096Y-2856228D02*
X39058096Y-2808609D01*
X39058096Y-2808609D02*
X39105715Y-2713371D01*
X39105715Y-2713371D02*
X39200953Y-2665752D01*
X39200953Y-2665752D02*
X39343810Y-2665752D01*
X39343810Y-2665752D02*
X39439048Y-2713371D01*
X40439048Y-3332419D02*
X39867620Y-3332419D01*
X40153334Y-3332419D02*
X40153334Y-2332419D01*
X40153334Y-2332419D02*
X40058096Y-2475276D01*
X40058096Y-2475276D02*
X39962858Y-2570514D01*
X39962858Y-2570514D02*
X39867620Y-2618133D01*
D11*
X-8464285Y-49004819D02*
X-8464285Y-48004819D01*
X-8464285Y-48004819D02*
X-7892857Y-49004819D01*
X-7892857Y-49004819D02*
X-7892857Y-48004819D01*
X-7416666Y-49004819D02*
X-7416666Y-48004819D01*
X-7416666Y-48004819D02*
X-7083333Y-48719104D01*
X-7083333Y-48719104D02*
X-6750000Y-48004819D01*
X-6750000Y-48004819D02*
X-6750000Y-49004819D01*
X-6273809Y-48481009D02*
X-5940476Y-48481009D01*
X-5797619Y-49004819D02*
X-6273809Y-49004819D01*
X-6273809Y-49004819D02*
X-6273809Y-48004819D01*
X-6273809Y-48004819D02*
X-5797619Y-48004819D01*
X-5416666Y-48719104D02*
X-4940476Y-48719104D01*
X-5511904Y-49004819D02*
X-5178571Y-48004819D01*
X-5178571Y-48004819D02*
X-4845238Y-49004819D01*
X-3988095Y-49004819D02*
X-4559523Y-49004819D01*
X-4273809Y-49004819D02*
X-4273809Y-48004819D01*
X-4273809Y-48004819D02*
X-4369047Y-48147676D01*
X-4369047Y-48147676D02*
X-4464285Y-48242914D01*
X-4464285Y-48242914D02*
X-4559523Y-48290533D01*
D10*
X33039525Y-48414580D02*
X33515715Y-48414580D01*
X33515715Y-48414580D02*
X33515715Y-49414580D01*
X32563334Y-48414580D02*
X32658572Y-48462200D01*
X32658572Y-48462200D02*
X32706191Y-48509819D01*
X32706191Y-48509819D02*
X32753810Y-48605057D01*
X32753810Y-48605057D02*
X32753810Y-48890771D01*
X32753810Y-48890771D02*
X32706191Y-48986009D01*
X32706191Y-48986009D02*
X32658572Y-49033628D01*
X32658572Y-49033628D02*
X32563334Y-49081247D01*
X32563334Y-49081247D02*
X32420477Y-49081247D01*
X32420477Y-49081247D02*
X32325239Y-49033628D01*
X32325239Y-49033628D02*
X32277620Y-48986009D01*
X32277620Y-48986009D02*
X32230001Y-48890771D01*
X32230001Y-48890771D02*
X32230001Y-48605057D01*
X32230001Y-48605057D02*
X32277620Y-48509819D01*
X32277620Y-48509819D02*
X32325239Y-48462200D01*
X32325239Y-48462200D02*
X32420477Y-48414580D01*
X32420477Y-48414580D02*
X32563334Y-48414580D01*
X31372858Y-49081247D02*
X31372858Y-48271723D01*
X31372858Y-48271723D02*
X31420477Y-48176485D01*
X31420477Y-48176485D02*
X31468096Y-48128866D01*
X31468096Y-48128866D02*
X31563334Y-48081247D01*
X31563334Y-48081247D02*
X31706191Y-48081247D01*
X31706191Y-48081247D02*
X31801429Y-48128866D01*
X31372858Y-48462200D02*
X31468096Y-48414580D01*
X31468096Y-48414580D02*
X31658572Y-48414580D01*
X31658572Y-48414580D02*
X31753810Y-48462200D01*
X31753810Y-48462200D02*
X31801429Y-48509819D01*
X31801429Y-48509819D02*
X31849048Y-48605057D01*
X31849048Y-48605057D02*
X31849048Y-48890771D01*
X31849048Y-48890771D02*
X31801429Y-48986009D01*
X31801429Y-48986009D02*
X31753810Y-49033628D01*
X31753810Y-49033628D02*
X31658572Y-49081247D01*
X31658572Y-49081247D02*
X31468096Y-49081247D01*
X31468096Y-49081247D02*
X31372858Y-49033628D01*
X30896667Y-48414580D02*
X30896667Y-49081247D01*
X30896667Y-49414580D02*
X30944286Y-49366961D01*
X30944286Y-49366961D02*
X30896667Y-49319342D01*
X30896667Y-49319342D02*
X30849048Y-49366961D01*
X30849048Y-49366961D02*
X30896667Y-49414580D01*
X30896667Y-49414580D02*
X30896667Y-49319342D01*
X29991906Y-48462200D02*
X30087144Y-48414580D01*
X30087144Y-48414580D02*
X30277620Y-48414580D01*
X30277620Y-48414580D02*
X30372858Y-48462200D01*
X30372858Y-48462200D02*
X30420477Y-48509819D01*
X30420477Y-48509819D02*
X30468096Y-48605057D01*
X30468096Y-48605057D02*
X30468096Y-48890771D01*
X30468096Y-48890771D02*
X30420477Y-48986009D01*
X30420477Y-48986009D02*
X30372858Y-49033628D01*
X30372858Y-49033628D02*
X30277620Y-49081247D01*
X30277620Y-49081247D02*
X30087144Y-49081247D01*
X30087144Y-49081247D02*
X29991906Y-49033628D01*
X29801430Y-48319342D02*
X29039525Y-48319342D01*
X28658572Y-48414580D02*
X28753810Y-48462200D01*
X28753810Y-48462200D02*
X28801429Y-48557438D01*
X28801429Y-48557438D02*
X28801429Y-49414580D01*
X27896667Y-48462200D02*
X27991905Y-48414580D01*
X27991905Y-48414580D02*
X28182381Y-48414580D01*
X28182381Y-48414580D02*
X28277619Y-48462200D01*
X28277619Y-48462200D02*
X28325238Y-48557438D01*
X28325238Y-48557438D02*
X28325238Y-48938390D01*
X28325238Y-48938390D02*
X28277619Y-49033628D01*
X28277619Y-49033628D02*
X28182381Y-49081247D01*
X28182381Y-49081247D02*
X27991905Y-49081247D01*
X27991905Y-49081247D02*
X27896667Y-49033628D01*
X27896667Y-49033628D02*
X27849048Y-48938390D01*
X27849048Y-48938390D02*
X27849048Y-48843152D01*
X27849048Y-48843152D02*
X28325238Y-48747914D01*
X27515714Y-49081247D02*
X27277619Y-48414580D01*
X27277619Y-48414580D02*
X27039524Y-49081247D01*
X26277619Y-48462200D02*
X26372857Y-48414580D01*
X26372857Y-48414580D02*
X26563333Y-48414580D01*
X26563333Y-48414580D02*
X26658571Y-48462200D01*
X26658571Y-48462200D02*
X26706190Y-48557438D01*
X26706190Y-48557438D02*
X26706190Y-48938390D01*
X26706190Y-48938390D02*
X26658571Y-49033628D01*
X26658571Y-49033628D02*
X26563333Y-49081247D01*
X26563333Y-49081247D02*
X26372857Y-49081247D01*
X26372857Y-49081247D02*
X26277619Y-49033628D01*
X26277619Y-49033628D02*
X26230000Y-48938390D01*
X26230000Y-48938390D02*
X26230000Y-48843152D01*
X26230000Y-48843152D02*
X26706190Y-48747914D01*
X25658571Y-48414580D02*
X25753809Y-48462200D01*
X25753809Y-48462200D02*
X25801428Y-48557438D01*
X25801428Y-48557438D02*
X25801428Y-49414580D01*
X25515714Y-48319342D02*
X24753809Y-48319342D01*
X23944285Y-48509819D02*
X23991904Y-48462200D01*
X23991904Y-48462200D02*
X24134761Y-48414580D01*
X24134761Y-48414580D02*
X24229999Y-48414580D01*
X24229999Y-48414580D02*
X24372856Y-48462200D01*
X24372856Y-48462200D02*
X24468094Y-48557438D01*
X24468094Y-48557438D02*
X24515713Y-48652676D01*
X24515713Y-48652676D02*
X24563332Y-48843152D01*
X24563332Y-48843152D02*
X24563332Y-48986009D01*
X24563332Y-48986009D02*
X24515713Y-49176485D01*
X24515713Y-49176485D02*
X24468094Y-49271723D01*
X24468094Y-49271723D02*
X24372856Y-49366961D01*
X24372856Y-49366961D02*
X24229999Y-49414580D01*
X24229999Y-49414580D02*
X24134761Y-49414580D01*
X24134761Y-49414580D02*
X23991904Y-49366961D01*
X23991904Y-49366961D02*
X23944285Y-49319342D01*
X23372856Y-48414580D02*
X23468094Y-48462200D01*
X23468094Y-48462200D02*
X23515713Y-48509819D01*
X23515713Y-48509819D02*
X23563332Y-48605057D01*
X23563332Y-48605057D02*
X23563332Y-48890771D01*
X23563332Y-48890771D02*
X23515713Y-48986009D01*
X23515713Y-48986009D02*
X23468094Y-49033628D01*
X23468094Y-49033628D02*
X23372856Y-49081247D01*
X23372856Y-49081247D02*
X23229999Y-49081247D01*
X23229999Y-49081247D02*
X23134761Y-49033628D01*
X23134761Y-49033628D02*
X23087142Y-48986009D01*
X23087142Y-48986009D02*
X23039523Y-48890771D01*
X23039523Y-48890771D02*
X23039523Y-48605057D01*
X23039523Y-48605057D02*
X23087142Y-48509819D01*
X23087142Y-48509819D02*
X23134761Y-48462200D01*
X23134761Y-48462200D02*
X23229999Y-48414580D01*
X23229999Y-48414580D02*
X23372856Y-48414580D01*
X22610951Y-49081247D02*
X22610951Y-48414580D01*
X22610951Y-48986009D02*
X22563332Y-49033628D01*
X22563332Y-49033628D02*
X22468094Y-49081247D01*
X22468094Y-49081247D02*
X22325237Y-49081247D01*
X22325237Y-49081247D02*
X22229999Y-49033628D01*
X22229999Y-49033628D02*
X22182380Y-48938390D01*
X22182380Y-48938390D02*
X22182380Y-48414580D01*
X21801427Y-49081247D02*
X21563332Y-48414580D01*
X21563332Y-48414580D02*
X21325237Y-49081247D01*
X20563332Y-48462200D02*
X20658570Y-48414580D01*
X20658570Y-48414580D02*
X20849046Y-48414580D01*
X20849046Y-48414580D02*
X20944284Y-48462200D01*
X20944284Y-48462200D02*
X20991903Y-48557438D01*
X20991903Y-48557438D02*
X20991903Y-48938390D01*
X20991903Y-48938390D02*
X20944284Y-49033628D01*
X20944284Y-49033628D02*
X20849046Y-49081247D01*
X20849046Y-49081247D02*
X20658570Y-49081247D01*
X20658570Y-49081247D02*
X20563332Y-49033628D01*
X20563332Y-49033628D02*
X20515713Y-48938390D01*
X20515713Y-48938390D02*
X20515713Y-48843152D01*
X20515713Y-48843152D02*
X20991903Y-48747914D01*
X20087141Y-48414580D02*
X20087141Y-49081247D01*
X20087141Y-48890771D02*
X20039522Y-48986009D01*
X20039522Y-48986009D02*
X19991903Y-49033628D01*
X19991903Y-49033628D02*
X19896665Y-49081247D01*
X19896665Y-49081247D02*
X19801427Y-49081247D01*
X19610950Y-49081247D02*
X19229998Y-49081247D01*
X19468093Y-49414580D02*
X19468093Y-48557438D01*
X19468093Y-48557438D02*
X19420474Y-48462200D01*
X19420474Y-48462200D02*
X19325236Y-48414580D01*
X19325236Y-48414580D02*
X19229998Y-48414580D01*
X18515712Y-48462200D02*
X18610950Y-48414580D01*
X18610950Y-48414580D02*
X18801426Y-48414580D01*
X18801426Y-48414580D02*
X18896664Y-48462200D01*
X18896664Y-48462200D02*
X18944283Y-48557438D01*
X18944283Y-48557438D02*
X18944283Y-48938390D01*
X18944283Y-48938390D02*
X18896664Y-49033628D01*
X18896664Y-49033628D02*
X18801426Y-49081247D01*
X18801426Y-49081247D02*
X18610950Y-49081247D01*
X18610950Y-49081247D02*
X18515712Y-49033628D01*
X18515712Y-49033628D02*
X18468093Y-48938390D01*
X18468093Y-48938390D02*
X18468093Y-48843152D01*
X18468093Y-48843152D02*
X18944283Y-48747914D01*
X18039521Y-48414580D02*
X18039521Y-49081247D01*
X18039521Y-48890771D02*
X17991902Y-48986009D01*
X17991902Y-48986009D02*
X17944283Y-49033628D01*
X17944283Y-49033628D02*
X17849045Y-49081247D01*
X17849045Y-49081247D02*
X17753807Y-49081247D01*
X16896664Y-48414580D02*
X17468092Y-48414580D01*
X17182378Y-48414580D02*
X17182378Y-49414580D01*
X17182378Y-49414580D02*
X17277616Y-49271723D01*
X17277616Y-49271723D02*
X17372854Y-49176485D01*
X17372854Y-49176485D02*
X17468092Y-49128866D01*
D11*
X9469880Y-48123509D02*
X9612737Y-48171128D01*
X9612737Y-48171128D02*
X9660356Y-48218747D01*
X9660356Y-48218747D02*
X9707975Y-48313985D01*
X9707975Y-48313985D02*
X9707975Y-48456842D01*
X9707975Y-48456842D02*
X9660356Y-48552080D01*
X9660356Y-48552080D02*
X9612737Y-48599700D01*
X9612737Y-48599700D02*
X9517499Y-48647319D01*
X9517499Y-48647319D02*
X9136547Y-48647319D01*
X9136547Y-48647319D02*
X9136547Y-47647319D01*
X9136547Y-47647319D02*
X9469880Y-47647319D01*
X9469880Y-47647319D02*
X9565118Y-47694938D01*
X9565118Y-47694938D02*
X9612737Y-47742557D01*
X9612737Y-47742557D02*
X9660356Y-47837795D01*
X9660356Y-47837795D02*
X9660356Y-47933033D01*
X9660356Y-47933033D02*
X9612737Y-48028271D01*
X9612737Y-48028271D02*
X9565118Y-48075890D01*
X9565118Y-48075890D02*
X9469880Y-48123509D01*
X9469880Y-48123509D02*
X9136547Y-48123509D01*
X10565118Y-48647319D02*
X10565118Y-48123509D01*
X10565118Y-48123509D02*
X10517499Y-48028271D01*
X10517499Y-48028271D02*
X10422261Y-47980652D01*
X10422261Y-47980652D02*
X10231785Y-47980652D01*
X10231785Y-47980652D02*
X10136547Y-48028271D01*
X10565118Y-48599700D02*
X10469880Y-48647319D01*
X10469880Y-48647319D02*
X10231785Y-48647319D01*
X10231785Y-48647319D02*
X10136547Y-48599700D01*
X10136547Y-48599700D02*
X10088928Y-48504461D01*
X10088928Y-48504461D02*
X10088928Y-48409223D01*
X10088928Y-48409223D02*
X10136547Y-48313985D01*
X10136547Y-48313985D02*
X10231785Y-48266366D01*
X10231785Y-48266366D02*
X10469880Y-48266366D01*
X10469880Y-48266366D02*
X10565118Y-48218747D01*
X10898452Y-47980652D02*
X11279404Y-47980652D01*
X11041309Y-47647319D02*
X11041309Y-48504461D01*
X11041309Y-48504461D02*
X11088928Y-48599700D01*
X11088928Y-48599700D02*
X11184166Y-48647319D01*
X11184166Y-48647319D02*
X11279404Y-48647319D01*
X11469881Y-47980652D02*
X11850833Y-47980652D01*
X11612738Y-47647319D02*
X11612738Y-48504461D01*
X11612738Y-48504461D02*
X11660357Y-48599700D01*
X11660357Y-48599700D02*
X11755595Y-48647319D01*
X11755595Y-48647319D02*
X11850833Y-48647319D01*
X12565119Y-48599700D02*
X12469881Y-48647319D01*
X12469881Y-48647319D02*
X12279405Y-48647319D01*
X12279405Y-48647319D02*
X12184167Y-48599700D01*
X12184167Y-48599700D02*
X12136548Y-48504461D01*
X12136548Y-48504461D02*
X12136548Y-48123509D01*
X12136548Y-48123509D02*
X12184167Y-48028271D01*
X12184167Y-48028271D02*
X12279405Y-47980652D01*
X12279405Y-47980652D02*
X12469881Y-47980652D01*
X12469881Y-47980652D02*
X12565119Y-48028271D01*
X12565119Y-48028271D02*
X12612738Y-48123509D01*
X12612738Y-48123509D02*
X12612738Y-48218747D01*
X12612738Y-48218747D02*
X12136548Y-48313985D01*
X13041310Y-48647319D02*
X13041310Y-47980652D01*
X13041310Y-48171128D02*
X13088929Y-48075890D01*
X13088929Y-48075890D02*
X13136548Y-48028271D01*
X13136548Y-48028271D02*
X13231786Y-47980652D01*
X13231786Y-47980652D02*
X13327024Y-47980652D01*
X13565120Y-47980652D02*
X13803215Y-48647319D01*
X14041310Y-47980652D02*
X13803215Y-48647319D01*
X13803215Y-48647319D02*
X13707977Y-48885414D01*
X13707977Y-48885414D02*
X13660358Y-48933033D01*
X13660358Y-48933033D02*
X13565120Y-48980652D01*
X14946072Y-48647319D02*
X14374644Y-48647319D01*
X14660358Y-48647319D02*
X14660358Y-47647319D01*
X14660358Y-47647319D02*
X14565120Y-47790176D01*
X14565120Y-47790176D02*
X14469882Y-47885414D01*
X14469882Y-47885414D02*
X14374644Y-47933033D01*
X-10851904Y32187680D02*
X-10851904Y31378157D01*
X-10851904Y31378157D02*
X-10804285Y31282919D01*
X-10804285Y31282919D02*
X-10756666Y31235300D01*
X-10756666Y31235300D02*
X-10661428Y31187680D01*
X-10661428Y31187680D02*
X-10470952Y31187680D01*
X-10470952Y31187680D02*
X-10375714Y31235300D01*
X-10375714Y31235300D02*
X-10328095Y31282919D01*
X-10328095Y31282919D02*
X-10280476Y31378157D01*
X-10280476Y31378157D02*
X-10280476Y32187680D01*
X-9851904Y32092442D02*
X-9804285Y32140061D01*
X-9804285Y32140061D02*
X-9709047Y32187680D01*
X-9709047Y32187680D02*
X-9470952Y32187680D01*
X-9470952Y32187680D02*
X-9375714Y32140061D01*
X-9375714Y32140061D02*
X-9328095Y32092442D01*
X-9328095Y32092442D02*
X-9280476Y31997204D01*
X-9280476Y31997204D02*
X-9280476Y31901966D01*
X-9280476Y31901966D02*
X-9328095Y31759109D01*
X-9328095Y31759109D02*
X-9899523Y31187680D01*
X-9899523Y31187680D02*
X-9280476Y31187680D01*
D10*
X-40478285Y36852580D02*
X-40478285Y37852580D01*
X-40478285Y37852580D02*
X-40144952Y37138295D01*
X-40144952Y37138295D02*
X-39811619Y37852580D01*
X-39811619Y37852580D02*
X-39811619Y36852580D01*
X-39335428Y36852580D02*
X-39335428Y37519247D01*
X-39335428Y37852580D02*
X-39383047Y37804961D01*
X-39383047Y37804961D02*
X-39335428Y37757342D01*
X-39335428Y37757342D02*
X-39287809Y37804961D01*
X-39287809Y37804961D02*
X-39335428Y37852580D01*
X-39335428Y37852580D02*
X-39335428Y37757342D01*
X-38430667Y36900200D02*
X-38525905Y36852580D01*
X-38525905Y36852580D02*
X-38716381Y36852580D01*
X-38716381Y36852580D02*
X-38811619Y36900200D01*
X-38811619Y36900200D02*
X-38859238Y36947819D01*
X-38859238Y36947819D02*
X-38906857Y37043057D01*
X-38906857Y37043057D02*
X-38906857Y37328771D01*
X-38906857Y37328771D02*
X-38859238Y37424009D01*
X-38859238Y37424009D02*
X-38811619Y37471628D01*
X-38811619Y37471628D02*
X-38716381Y37519247D01*
X-38716381Y37519247D02*
X-38525905Y37519247D01*
X-38525905Y37519247D02*
X-38430667Y37471628D01*
X-38002095Y36852580D02*
X-38002095Y37519247D01*
X-38002095Y37328771D02*
X-37954476Y37424009D01*
X-37954476Y37424009D02*
X-37906857Y37471628D01*
X-37906857Y37471628D02*
X-37811619Y37519247D01*
X-37811619Y37519247D02*
X-37716381Y37519247D01*
X-37240190Y36852580D02*
X-37335428Y36900200D01*
X-37335428Y36900200D02*
X-37383047Y36947819D01*
X-37383047Y36947819D02*
X-37430666Y37043057D01*
X-37430666Y37043057D02*
X-37430666Y37328771D01*
X-37430666Y37328771D02*
X-37383047Y37424009D01*
X-37383047Y37424009D02*
X-37335428Y37471628D01*
X-37335428Y37471628D02*
X-37240190Y37519247D01*
X-37240190Y37519247D02*
X-37097333Y37519247D01*
X-37097333Y37519247D02*
X-37002095Y37471628D01*
X-37002095Y37471628D02*
X-36954476Y37424009D01*
X-36954476Y37424009D02*
X-36906857Y37328771D01*
X-36906857Y37328771D02*
X-36906857Y37043057D01*
X-36906857Y37043057D02*
X-36954476Y36947819D01*
X-36954476Y36947819D02*
X-37002095Y36900200D01*
X-37002095Y36900200D02*
X-37097333Y36852580D01*
X-37097333Y36852580D02*
X-37240190Y36852580D01*
X-36525904Y36900200D02*
X-36383047Y36852580D01*
X-36383047Y36852580D02*
X-36144952Y36852580D01*
X-36144952Y36852580D02*
X-36049714Y36900200D01*
X-36049714Y36900200D02*
X-36002095Y36947819D01*
X-36002095Y36947819D02*
X-35954476Y37043057D01*
X-35954476Y37043057D02*
X-35954476Y37138295D01*
X-35954476Y37138295D02*
X-36002095Y37233533D01*
X-36002095Y37233533D02*
X-36049714Y37281152D01*
X-36049714Y37281152D02*
X-36144952Y37328771D01*
X-36144952Y37328771D02*
X-36335428Y37376390D01*
X-36335428Y37376390D02*
X-36430666Y37424009D01*
X-36430666Y37424009D02*
X-36478285Y37471628D01*
X-36478285Y37471628D02*
X-36525904Y37566866D01*
X-36525904Y37566866D02*
X-36525904Y37662104D01*
X-36525904Y37662104D02*
X-36478285Y37757342D01*
X-36478285Y37757342D02*
X-36430666Y37804961D01*
X-36430666Y37804961D02*
X-36335428Y37852580D01*
X-36335428Y37852580D02*
X-36097333Y37852580D01*
X-36097333Y37852580D02*
X-35954476Y37804961D01*
X-35525904Y36852580D02*
X-35525904Y37852580D01*
X-35525904Y37852580D02*
X-35287809Y37852580D01*
X-35287809Y37852580D02*
X-35144952Y37804961D01*
X-35144952Y37804961D02*
X-35049714Y37709723D01*
X-35049714Y37709723D02*
X-35002095Y37614485D01*
X-35002095Y37614485D02*
X-34954476Y37424009D01*
X-34954476Y37424009D02*
X-34954476Y37281152D01*
X-34954476Y37281152D02*
X-35002095Y37090676D01*
X-35002095Y37090676D02*
X-35049714Y36995438D01*
X-35049714Y36995438D02*
X-35144952Y36900200D01*
X-35144952Y36900200D02*
X-35287809Y36852580D01*
X-35287809Y36852580D02*
X-35525904Y36852580D01*
X-34002095Y36852580D02*
X-34573523Y36852580D01*
X-34287809Y36852580D02*
X-34287809Y37852580D01*
X-34287809Y37852580D02*
X-34383047Y37709723D01*
X-34383047Y37709723D02*
X-34478285Y37614485D01*
X-34478285Y37614485D02*
X-34573523Y37566866D01*
X-8766666Y-19295419D02*
X-9242856Y-19295419D01*
X-9242856Y-19295419D02*
X-9242856Y-18295419D01*
X-8433332Y-19295419D02*
X-8433332Y-18295419D01*
X-8433332Y-18295419D02*
X-8099999Y-19009704D01*
X-8099999Y-19009704D02*
X-7766666Y-18295419D01*
X-7766666Y-18295419D02*
X-7766666Y-19295419D01*
X-7338094Y-18390657D02*
X-7290475Y-18343038D01*
X-7290475Y-18343038D02*
X-7195237Y-18295419D01*
X-7195237Y-18295419D02*
X-6957142Y-18295419D01*
X-6957142Y-18295419D02*
X-6861904Y-18343038D01*
X-6861904Y-18343038D02*
X-6814285Y-18390657D01*
X-6814285Y-18390657D02*
X-6766666Y-18485895D01*
X-6766666Y-18485895D02*
X-6766666Y-18581133D01*
X-6766666Y-18581133D02*
X-6814285Y-18723990D01*
X-6814285Y-18723990D02*
X-7385713Y-19295419D01*
X-7385713Y-19295419D02*
X-6766666Y-19295419D01*
X-5861904Y-18295419D02*
X-6338094Y-18295419D01*
X-6338094Y-18295419D02*
X-6385713Y-18771609D01*
X-6385713Y-18771609D02*
X-6338094Y-18723990D01*
X-6338094Y-18723990D02*
X-6242856Y-18676371D01*
X-6242856Y-18676371D02*
X-6004761Y-18676371D01*
X-6004761Y-18676371D02*
X-5909523Y-18723990D01*
X-5909523Y-18723990D02*
X-5861904Y-18771609D01*
X-5861904Y-18771609D02*
X-5814285Y-18866847D01*
X-5814285Y-18866847D02*
X-5814285Y-19104942D01*
X-5814285Y-19104942D02*
X-5861904Y-19200180D01*
X-5861904Y-19200180D02*
X-5909523Y-19247800D01*
X-5909523Y-19247800D02*
X-6004761Y-19295419D01*
X-6004761Y-19295419D02*
X-6242856Y-19295419D01*
X-6242856Y-19295419D02*
X-6338094Y-19247800D01*
X-6338094Y-19247800D02*
X-6385713Y-19200180D01*
X-5338094Y-19295419D02*
X-5147618Y-19295419D01*
X-5147618Y-19295419D02*
X-5052380Y-19247800D01*
X-5052380Y-19247800D02*
X-5004761Y-19200180D01*
X-5004761Y-19200180D02*
X-4909523Y-19057323D01*
X-4909523Y-19057323D02*
X-4861904Y-18866847D01*
X-4861904Y-18866847D02*
X-4861904Y-18485895D01*
X-4861904Y-18485895D02*
X-4909523Y-18390657D01*
X-4909523Y-18390657D02*
X-4957142Y-18343038D01*
X-4957142Y-18343038D02*
X-5052380Y-18295419D01*
X-5052380Y-18295419D02*
X-5242856Y-18295419D01*
X-5242856Y-18295419D02*
X-5338094Y-18343038D01*
X-5338094Y-18343038D02*
X-5385713Y-18390657D01*
X-5385713Y-18390657D02*
X-5433332Y-18485895D01*
X-5433332Y-18485895D02*
X-5433332Y-18723990D01*
X-5433332Y-18723990D02*
X-5385713Y-18819228D01*
X-5385713Y-18819228D02*
X-5338094Y-18866847D01*
X-5338094Y-18866847D02*
X-5242856Y-18914466D01*
X-5242856Y-18914466D02*
X-5052380Y-18914466D01*
X-5052380Y-18914466D02*
X-4957142Y-18866847D01*
X-4957142Y-18866847D02*
X-4909523Y-18819228D01*
X-4909523Y-18819228D02*
X-4861904Y-18723990D01*
X-4004761Y-18295419D02*
X-4195237Y-18295419D01*
X-4195237Y-18295419D02*
X-4290475Y-18343038D01*
X-4290475Y-18343038D02*
X-4338094Y-18390657D01*
X-4338094Y-18390657D02*
X-4433332Y-18533514D01*
X-4433332Y-18533514D02*
X-4480951Y-18723990D01*
X-4480951Y-18723990D02*
X-4480951Y-19104942D01*
X-4480951Y-19104942D02*
X-4433332Y-19200180D01*
X-4433332Y-19200180D02*
X-4385713Y-19247800D01*
X-4385713Y-19247800D02*
X-4290475Y-19295419D01*
X-4290475Y-19295419D02*
X-4099999Y-19295419D01*
X-4099999Y-19295419D02*
X-4004761Y-19247800D01*
X-4004761Y-19247800D02*
X-3957142Y-19200180D01*
X-3957142Y-19200180D02*
X-3909523Y-19104942D01*
X-3909523Y-19104942D02*
X-3909523Y-18866847D01*
X-3909523Y-18866847D02*
X-3957142Y-18771609D01*
X-3957142Y-18771609D02*
X-4004761Y-18723990D01*
X-4004761Y-18723990D02*
X-4099999Y-18676371D01*
X-4099999Y-18676371D02*
X-4290475Y-18676371D01*
X-4290475Y-18676371D02*
X-4385713Y-18723990D01*
X-4385713Y-18723990D02*
X-4433332Y-18771609D01*
X-4433332Y-18771609D02*
X-4480951Y-18866847D01*
D11*
X18672438Y58534523D02*
X18624819Y58439285D01*
X18624819Y58439285D02*
X18624819Y58296428D01*
X18624819Y58296428D02*
X18672438Y58153571D01*
X18672438Y58153571D02*
X18767676Y58058333D01*
X18767676Y58058333D02*
X18862914Y58010714D01*
X18862914Y58010714D02*
X19053390Y57963095D01*
X19053390Y57963095D02*
X19196247Y57963095D01*
X19196247Y57963095D02*
X19386723Y58010714D01*
X19386723Y58010714D02*
X19481961Y58058333D01*
X19481961Y58058333D02*
X19577200Y58153571D01*
X19577200Y58153571D02*
X19624819Y58296428D01*
X19624819Y58296428D02*
X19624819Y58391666D01*
X19624819Y58391666D02*
X19577200Y58534523D01*
X19577200Y58534523D02*
X19529580Y58582142D01*
X19529580Y58582142D02*
X19196247Y58582142D01*
X19196247Y58582142D02*
X19196247Y58391666D01*
X19624819Y59010714D02*
X18624819Y59010714D01*
X18624819Y59010714D02*
X18624819Y59391666D01*
X18624819Y59391666D02*
X18672438Y59486904D01*
X18672438Y59486904D02*
X18720057Y59534523D01*
X18720057Y59534523D02*
X18815295Y59582142D01*
X18815295Y59582142D02*
X18958152Y59582142D01*
X18958152Y59582142D02*
X19053390Y59534523D01*
X19053390Y59534523D02*
X19101009Y59486904D01*
X19101009Y59486904D02*
X19148628Y59391666D01*
X19148628Y59391666D02*
X19148628Y59010714D01*
X19577200Y59963095D02*
X19624819Y60105952D01*
X19624819Y60105952D02*
X19624819Y60344047D01*
X19624819Y60344047D02*
X19577200Y60439285D01*
X19577200Y60439285D02*
X19529580Y60486904D01*
X19529580Y60486904D02*
X19434342Y60534523D01*
X19434342Y60534523D02*
X19339104Y60534523D01*
X19339104Y60534523D02*
X19243866Y60486904D01*
X19243866Y60486904D02*
X19196247Y60439285D01*
X19196247Y60439285D02*
X19148628Y60344047D01*
X19148628Y60344047D02*
X19101009Y60153571D01*
X19101009Y60153571D02*
X19053390Y60058333D01*
X19053390Y60058333D02*
X19005771Y60010714D01*
X19005771Y60010714D02*
X18910533Y59963095D01*
X18910533Y59963095D02*
X18815295Y59963095D01*
X18815295Y59963095D02*
X18720057Y60010714D01*
X18720057Y60010714D02*
X18672438Y60058333D01*
X18672438Y60058333D02*
X18624819Y60153571D01*
X18624819Y60153571D02*
X18624819Y60391666D01*
X18624819Y60391666D02*
X18672438Y60534523D01*
X19624819Y61486904D02*
X19624819Y60915476D01*
X19624819Y61201190D02*
X18624819Y61201190D01*
X18624819Y61201190D02*
X18767676Y61105952D01*
X18767676Y61105952D02*
X18862914Y61010714D01*
X18862914Y61010714D02*
X18910533Y60915476D01*
X-54170180Y-14096904D02*
X-53360657Y-14096904D01*
X-53360657Y-14096904D02*
X-53265419Y-14049285D01*
X-53265419Y-14049285D02*
X-53217800Y-14001666D01*
X-53217800Y-14001666D02*
X-53170180Y-13906428D01*
X-53170180Y-13906428D02*
X-53170180Y-13715952D01*
X-53170180Y-13715952D02*
X-53217800Y-13620714D01*
X-53217800Y-13620714D02*
X-53265419Y-13573095D01*
X-53265419Y-13573095D02*
X-53360657Y-13525476D01*
X-53360657Y-13525476D02*
X-54170180Y-13525476D01*
X-53170180Y-12525476D02*
X-53170180Y-13096904D01*
X-53170180Y-12811190D02*
X-54170180Y-12811190D01*
X-54170180Y-12811190D02*
X-54027323Y-12906428D01*
X-54027323Y-12906428D02*
X-53932085Y-13001666D01*
X-53932085Y-13001666D02*
X-53884466Y-13096904D01*
%TO.C,CAN_Trans1*%
D10*
X27430000Y-7820000D02*
X45210000Y-7820000D01*
X45210000Y-23060000D01*
X27430000Y-23060000D01*
X27430000Y-7820000D01*
D12*
%TO.C,NMEA1*%
X-14450000Y-49250000D02*
X-12450000Y-49250000D01*
X-14450000Y-50500000D02*
X-14450000Y-49250000D01*
X-13000000Y-50600000D02*
X-10000000Y-50600000D01*
X-13000000Y-51950000D02*
X-12250000Y-51950000D01*
X-13000000Y-56250000D02*
X-13000000Y-51950000D01*
X-12750000Y-51600000D02*
X-13000000Y-50600000D01*
X-12250000Y-51600000D02*
X-12750000Y-51600000D01*
X-12250000Y-51950000D02*
X-12250000Y-51600000D01*
X-12250000Y-56250000D02*
X-13000000Y-56250000D01*
X-10750000Y-51600000D02*
X-10750000Y-51950000D01*
X-10750000Y-51950000D02*
X-10000000Y-51950000D01*
X-10250000Y-51600000D02*
X-10750000Y-51600000D01*
X-10000000Y-50600000D02*
X-10250000Y-51600000D01*
X-10000000Y-51950000D02*
X-10000000Y-56250000D01*
X-10000000Y-56250000D02*
X-10750000Y-56250000D01*
X-9500000Y-50600000D02*
X-6500000Y-50600000D01*
X-9500000Y-51950000D02*
X-8750000Y-51950000D01*
X-9500000Y-56250000D02*
X-9500000Y-51950000D01*
X-9250000Y-51600000D02*
X-9500000Y-50600000D01*
X-8750000Y-51600000D02*
X-9250000Y-51600000D01*
X-8750000Y-51950000D02*
X-8750000Y-51600000D01*
X-8750000Y-56250000D02*
X-9500000Y-56250000D01*
X-7250000Y-51600000D02*
X-7250000Y-51950000D01*
X-7250000Y-51950000D02*
X-6500000Y-51950000D01*
X-6750000Y-51600000D02*
X-7250000Y-51600000D01*
X-6500000Y-50600000D02*
X-6750000Y-51600000D01*
X-6500000Y-51950000D02*
X-6500000Y-56250000D01*
X-6500000Y-56250000D02*
X-7250000Y-56250000D01*
X-6000000Y-50600000D02*
X-3000000Y-50600000D01*
X-6000000Y-51950000D02*
X-5250000Y-51950000D01*
X-6000000Y-56250000D02*
X-6000000Y-51950000D01*
X-5750000Y-51600000D02*
X-6000000Y-50600000D01*
X-5250000Y-51600000D02*
X-5750000Y-51600000D01*
X-5250000Y-51950000D02*
X-5250000Y-51600000D01*
X-5250000Y-56250000D02*
X-6000000Y-56250000D01*
X-3750000Y-51600000D02*
X-3750000Y-51950000D01*
X-3750000Y-51950000D02*
X-3000000Y-51950000D01*
X-3250000Y-51600000D02*
X-3750000Y-51600000D01*
X-3000000Y-50600000D02*
X-3250000Y-51600000D01*
X-3000000Y-51950000D02*
X-3000000Y-56250000D01*
X-3000000Y-56250000D02*
X-3750000Y-56250000D01*
X-2500000Y-50600000D02*
X500000Y-50600000D01*
X-2500000Y-51950000D02*
X-1750000Y-51950000D01*
X-2500000Y-56250000D02*
X-2500000Y-51950000D01*
X-2250000Y-51600000D02*
X-2500000Y-50600000D01*
X-1750000Y-51600000D02*
X-2250000Y-51600000D01*
X-1750000Y-51950000D02*
X-1750000Y-51600000D01*
X-1750000Y-56250000D02*
X-2500000Y-56250000D01*
X-250000Y-51600000D02*
X-250000Y-51950000D01*
X-250000Y-51950000D02*
X500000Y-51950000D01*
X250000Y-51600000D02*
X-250000Y-51600000D01*
X500000Y-50600000D02*
X250000Y-51600000D01*
X500000Y-51950000D02*
X500000Y-56250000D01*
X500000Y-56250000D02*
X-250000Y-56250000D01*
X-14060000Y-49640000D02*
X1560000Y-49640000D01*
X1560000Y-57110000D01*
X-14060000Y-57110000D01*
X-14060000Y-49640000D01*
X-12250000Y-56250000D02*
G75*
G02*
X-10750353Y-56249844I750000J-1700000D01*
G01*
X-8750000Y-56250000D02*
G75*
G02*
X-7250353Y-56249844I750000J-1700000D01*
G01*
X-5250000Y-56250000D02*
G75*
G02*
X-3750353Y-56249844I750000J-1700000D01*
G01*
X-1750000Y-56250000D02*
G75*
G02*
X-250353Y-56249844I750000J-1700000D01*
G01*
%TO.C,Logic_level_Converter1*%
D10*
X31834000Y-44324000D02*
X18626000Y-44324000D01*
X18626000Y-28576000D01*
X31834000Y-28576000D01*
X31834000Y-44324000D01*
D12*
%TO.C,Battery1*%
X7317500Y-48892500D02*
X9317500Y-48892500D01*
X7317500Y-50142500D02*
X7317500Y-48892500D01*
X8767500Y-50242500D02*
X11767500Y-50242500D01*
X8767500Y-51592500D02*
X9517500Y-51592500D01*
X8767500Y-55892500D02*
X8767500Y-51592500D01*
X9017500Y-51242500D02*
X8767500Y-50242500D01*
X9517500Y-51242500D02*
X9017500Y-51242500D01*
X9517500Y-51592500D02*
X9517500Y-51242500D01*
X9517500Y-55892500D02*
X8767500Y-55892500D01*
X11017500Y-51242500D02*
X11017500Y-51592500D01*
X11017500Y-51592500D02*
X11767500Y-51592500D01*
X11517500Y-51242500D02*
X11017500Y-51242500D01*
X11767500Y-50242500D02*
X11517500Y-51242500D01*
X11767500Y-51592500D02*
X11767500Y-55892500D01*
X11767500Y-55892500D02*
X11017500Y-55892500D01*
X12267500Y-50242500D02*
X15267500Y-50242500D01*
X12267500Y-51592500D02*
X13017500Y-51592500D01*
X12267500Y-55892500D02*
X12267500Y-51592500D01*
X12517500Y-51242500D02*
X12267500Y-50242500D01*
X13017500Y-51242500D02*
X12517500Y-51242500D01*
X13017500Y-51592500D02*
X13017500Y-51242500D01*
X13017500Y-55892500D02*
X12267500Y-55892500D01*
X14517500Y-51242500D02*
X14517500Y-51592500D01*
X14517500Y-51592500D02*
X15267500Y-51592500D01*
X15017500Y-51242500D02*
X14517500Y-51242500D01*
X15267500Y-50242500D02*
X15017500Y-51242500D01*
X15267500Y-51592500D02*
X15267500Y-55892500D01*
X15267500Y-55892500D02*
X14517500Y-55892500D01*
X7707500Y-49282500D02*
X16327500Y-49282500D01*
X16327500Y-56752500D01*
X7707500Y-56752500D01*
X7707500Y-49282500D01*
X9517500Y-55892500D02*
G75*
G02*
X11017147Y-55892344I750000J-1700000D01*
G01*
X13017500Y-55892500D02*
G75*
G02*
X14517147Y-55892344I750000J-1700000D01*
G01*
D13*
%TO.C,U2*%
X-12630000Y30370000D02*
X-6530000Y30370000D01*
X-12630000Y-13440000D02*
X-12630000Y30370000D01*
X-6530000Y35870000D02*
X6670000Y35870000D01*
X-6530000Y30370000D02*
X-6530000Y35870000D01*
X-3980000Y-13440000D02*
X-12630000Y-13440000D01*
X-3980000Y-13440000D02*
X-3980000Y-14060000D01*
X-3980000Y-14060000D02*
X4120000Y-14060000D01*
X4120000Y-14060000D02*
X4120000Y-13440000D01*
X6670000Y35870000D02*
X6670000Y30370000D01*
X6670000Y30370000D02*
X12770000Y30370000D01*
X12770000Y30370000D02*
X12770000Y-13440000D01*
X12770000Y-13440000D02*
X4120000Y-13440000D01*
D14*
X-13080000Y28800000D02*
G75*
G02*
X-13280000Y28800000I-100000J0D01*
G01*
X-13280000Y28800000D02*
G75*
G02*
X-13080000Y28800000I100000J0D01*
G01*
%TO.C,MicroSD1*%
D10*
X-54663000Y32000000D02*
X-19103000Y32000000D01*
X-19103000Y6600000D01*
X-54663000Y6600000D01*
X-54663000Y32000000D01*
%TO.C,LM2596*%
X-28190000Y-23640000D02*
X14990000Y-23640000D01*
X14990000Y-43960000D01*
X-28190000Y-43960000D01*
X-28190000Y-23640000D01*
D13*
%TO.C,GPS1*%
X-17005000Y39790000D02*
X-17005000Y60110000D01*
X-14465000Y62650000D02*
X14745000Y62650000D01*
X14745000Y37250000D02*
X-14465000Y37250000D01*
X17285000Y60110000D02*
X17285000Y39790000D01*
X-17005000Y60110000D02*
G75*
G02*
X-14465000Y62650000I2540001J-1D01*
G01*
X-14465000Y37250000D02*
G75*
G02*
X-17005000Y39790000I0J2540000D01*
G01*
X14745000Y62650000D02*
G75*
G02*
X17285000Y60110000I-1J-2540001D01*
G01*
X17285000Y39790000D02*
G75*
G02*
X14745000Y37250000I-2540000J0D01*
G01*
D14*
X-14873000Y63400000D02*
G75*
G02*
X-15073000Y63400000I-100000J0D01*
G01*
X-15073000Y63400000D02*
G75*
G02*
X-14873000Y63400000I100000J0D01*
G01*
D13*
%TO.C,U1*%
X-50960000Y-3120000D02*
X-49420000Y-3120000D01*
X-50960000Y-12120000D02*
X-50960000Y-3120000D01*
X-49420000Y1270000D02*
X-49420000Y-3120000D01*
X-49420000Y-12120000D02*
X-50960000Y-12120000D01*
X-49420000Y-12120000D02*
X-49420000Y-16510000D01*
X-49420000Y-16510000D02*
X-28420000Y-16510000D01*
X-28420000Y1270000D02*
X-49420000Y1270000D01*
X-28420000Y-16510000D02*
X-28420000Y1270000D01*
D14*
X-46420000Y-17220000D02*
G75*
G02*
X-46620000Y-17220000I-100000J0D01*
G01*
X-46620000Y-17220000D02*
G75*
G02*
X-46420000Y-17220000I100000J0D01*
G01*
%TD*%
M02*
