%TF.GenerationSoftware,KiCad,Pcbnew,9.0.7*%
%TF.CreationDate,2026-04-20T12:04:53+02:00*%
%TF.ProjectId,Sailowtech,5361696c-6f77-4746-9563-682e6b696361,rev?*%
%TF.SameCoordinates,Original*%
%TF.FileFunction,Copper,L1,Top*%
%TF.FilePolarity,Positive*%
%FSLAX46Y46*%
G04 Gerber Fmt 4.6, Leading zero omitted, Abs format (unit mm)*
G04 Created by KiCad (PCBNEW 9.0.7) date 2026-04-20 12:04:53*
%MOMM*%
%LPD*%
G01*
G04 APERTURE LIST*
G04 Aperture macros list*
%AMRoundRect*
0 Rectangle with rounded corners*
0 $1 Rounding radius*
0 $2 $3 $4 $5 $6 $7 $8 $9 X,Y pos of 4 corners*
0 Add a 4 corners polygon primitive as box body*
4,1,4,$2,$3,$4,$5,$6,$7,$8,$9,$2,$3,0*
0 Add four circle primitives for the rounded corners*
1,1,$1+$1,$2,$3*
1,1,$1+$1,$4,$5*
1,1,$1+$1,$6,$7*
1,1,$1+$1,$8,$9*
0 Add four rect primitives between the rounded corners*
20,1,$1+$1,$2,$3,$4,$5,0*
20,1,$1+$1,$4,$5,$6,$7,0*
20,1,$1+$1,$6,$7,$8,$9,0*
20,1,$1+$1,$8,$9,$2,$3,0*%
G04 Aperture macros list end*
%TA.AperFunction,ComponentPad*%
%ADD10C,1.500000*%
%TD*%
%TA.AperFunction,ComponentPad*%
%ADD11R,1.500000X1.500000*%
%TD*%
%TA.AperFunction,ComponentPad*%
%ADD12RoundRect,0.250000X-0.650000X-1.550000X0.650000X-1.550000X0.650000X1.550000X-0.650000X1.550000X0*%
%TD*%
%TA.AperFunction,ComponentPad*%
%ADD13O,1.800000X3.600000*%
%TD*%
%TA.AperFunction,ComponentPad*%
%ADD14R,1.524000X1.524000*%
%TD*%
%TA.AperFunction,ComponentPad*%
%ADD15C,1.524000*%
%TD*%
%TA.AperFunction,ComponentPad*%
%ADD16R,1.778000X1.778000*%
%TD*%
%TA.AperFunction,ComponentPad*%
%ADD17C,1.778000*%
%TD*%
%TA.AperFunction,ComponentPad*%
%ADD18C,3.200000*%
%TD*%
%TA.AperFunction,ComponentPad*%
%ADD19R,1.600000X1.600000*%
%TD*%
%TA.AperFunction,ComponentPad*%
%ADD20C,1.600000*%
%TD*%
%TA.AperFunction,ComponentPad*%
%ADD21R,1.700000X1.700000*%
%TD*%
%TA.AperFunction,ComponentPad*%
%ADD22C,1.700000*%
%TD*%
%TA.AperFunction,Conductor*%
%ADD23C,0.406000*%
%TD*%
G04 APERTURE END LIST*
D10*
%TO.P,CAN_Trans1,1,CANL*%
%TO.N,Net-(CAN_Trans1-CANL)*%
X43940000Y-9090000D03*
%TO.P,CAN_Trans1,2,CANH*%
%TO.N,Net-(CAN_Trans1-CANH)*%
X43940000Y-11630000D03*
%TO.P,CAN_Trans1,3,CRX*%
%TO.N,Net-(CAN_Trans1-CRX)*%
X43940000Y-14170000D03*
%TO.P,CAN_Trans1,4,CTX*%
%TO.N,Net-(CAN_Trans1-CTX)*%
X43940000Y-16710000D03*
D11*
%TO.P,CAN_Trans1,5,GND*%
%TO.N,GND*%
X43940000Y-19250000D03*
D10*
%TO.P,CAN_Trans1,6,Vcc*%
%TO.N,+5V*%
X43940000Y-21790000D03*
%TD*%
D12*
%TO.P,NMEA1,1,Pin_1*%
%TO.N,Net-(CAN_Trans1-CANL)*%
X-11500000Y-54000000D03*
D13*
%TO.P,NMEA1,2,Pin_2*%
%TO.N,Net-(CAN_Trans1-CANH)*%
X-8000000Y-54000000D03*
%TO.P,NMEA1,3,Pin_3*%
%TO.N,GND*%
X-4500000Y-54000000D03*
%TO.P,NMEA1,4,Pin_4*%
%TO.N,Net-(LM2596-3.2-40V)*%
X-1000000Y-54000000D03*
%TD*%
D10*
%TO.P,Logic_level_Converter1,1,HV4*%
%TO.N,unconnected-(Logic_level_Converter1-HV4-Pad1)*%
X30310000Y-42800000D03*
%TO.P,Logic_level_Converter1,2,HV3*%
%TO.N,unconnected-(Logic_level_Converter1-HV3-Pad2)*%
X30310000Y-40260000D03*
D11*
%TO.P,Logic_level_Converter1,3,GND*%
%TO.N,GND*%
X30310000Y-37720000D03*
D10*
%TO.P,Logic_level_Converter1,4,5V*%
%TO.N,+5V*%
X30310000Y-35180000D03*
%TO.P,Logic_level_Converter1,5,HV2*%
%TO.N,Net-(CAN_Trans1-CRX)*%
X30310000Y-32640000D03*
%TO.P,Logic_level_Converter1,6,HV1*%
%TO.N,Net-(CAN_Trans1-CTX)*%
X30310000Y-30100000D03*
%TO.P,Logic_level_Converter1,7,LV4*%
%TO.N,unconnected-(Logic_level_Converter1-LV4-Pad7)*%
X20150000Y-42800000D03*
%TO.P,Logic_level_Converter1,8,LV3*%
%TO.N,unconnected-(Logic_level_Converter1-LV3-Pad8)*%
X20150000Y-40260000D03*
D11*
%TO.P,Logic_level_Converter1,9,GND*%
%TO.N,GND*%
X20150000Y-37720000D03*
D10*
%TO.P,Logic_level_Converter1,10,3.3V*%
%TO.N,+3.3V*%
X20150000Y-35180000D03*
%TO.P,Logic_level_Converter1,11,LV2*%
%TO.N,Net-(Logic_level_Converter1-LV2)*%
X20150000Y-32640000D03*
%TO.P,Logic_level_Converter1,12,LV1*%
%TO.N,Net-(Logic_level_Converter1-LV1)*%
X20150000Y-30100000D03*
%TD*%
D12*
%TO.P,Battery1,1,Pin_1*%
%TO.N,+5V*%
X10267500Y-53642500D03*
D13*
%TO.P,Battery1,2,Pin_2*%
%TO.N,GND*%
X13767500Y-53642500D03*
%TD*%
D14*
%TO.P,U2,J1_1,GND_J1_1*%
%TO.N,GND*%
X-11360000Y28800000D03*
D15*
%TO.P,U2,J1_2,VCC_3V3*%
%TO.N,+3.3V*%
X-11360000Y26260000D03*
%TO.P,U2,J1_3,GPI36*%
%TO.N,unconnected-(U2-GPI36-PadJ1_3)*%
X-11360000Y23720000D03*
%TO.P,U2,J1_4,GPI37*%
%TO.N,unconnected-(U2-GPI37-PadJ1_4)*%
X-11360000Y21180000D03*
%TO.P,U2,J1_5,GPI38*%
%TO.N,unconnected-(U2-GPI38-PadJ1_5)*%
X-11360000Y18640000D03*
%TO.P,U2,J1_6,GPI39*%
%TO.N,unconnected-(U2-GPI39-PadJ1_6)*%
X-11360000Y16100000D03*
%TO.P,U2,J1_7,ESP_RST*%
%TO.N,unconnected-(U2-ESP_RST-PadJ1_7)*%
X-11360000Y13560000D03*
%TO.P,U2,J1_8,GPI34*%
%TO.N,unconnected-(U2-GPI34-PadJ1_8)*%
X-11360000Y11020000D03*
%TO.P,U2,J1_9,GPI35*%
%TO.N,unconnected-(U2-GPI35-PadJ1_9)*%
X-11360000Y8480000D03*
%TO.P,U2,J1_10,GPIO32*%
%TO.N,unconnected-(U2-GPIO32-PadJ1_10)*%
X-11360000Y5940000D03*
%TO.P,U2,J1_11,GPIO33*%
%TO.N,unconnected-(U2-GPIO33-PadJ1_11)*%
X-11360000Y3400000D03*
%TO.P,U2,J1_12,GPIO25*%
%TO.N,Net-(U1-TX{slash}D6)*%
X-11360000Y860000D03*
%TO.P,U2,J1_13,GPIO26*%
%TO.N,Net-(U1-RX{slash}D7)*%
X-11360000Y-1680000D03*
%TO.P,U2,J1_14,GPIO27*%
%TO.N,Net-(Logic_level_Converter1-LV2)*%
X-11360000Y-4220000D03*
%TO.P,U2,J1_15,GPIO14*%
%TO.N,Net-(Logic_level_Converter1-LV1)*%
X-11360000Y-6760000D03*
%TO.P,U2,J1_16,VCC_5V*%
%TO.N,+5V*%
X-11360000Y-9300000D03*
%TO.P,U2,J1_17,GND_J1_17*%
%TO.N,GND*%
X-11360000Y-11840000D03*
%TO.P,U2,J3_1,GND_J3_1*%
X11500000Y28800000D03*
%TO.P,U2,J3_2,U0RXD*%
%TO.N,Net-(GPS1-TX)*%
X11500000Y26260000D03*
%TO.P,U2,J3_3,U0TXD*%
%TO.N,Net-(GPS1-RX)*%
X11500000Y23720000D03*
%TO.P,U2,J3_4,GPIO21*%
%TO.N,Net-(J2-Pin_5)*%
X11500000Y21180000D03*
%TO.P,U2,J3_5,GPIO22*%
%TO.N,Net-(J2-Pin_6)*%
X11500000Y18640000D03*
%TO.P,U2,J3_6,GPIO19*%
%TO.N,Net-(MicroSD1-CS)*%
X11500000Y16100000D03*
%TO.P,U2,J3_7,GPIO23*%
%TO.N,Net-(MicroSD1-D1)*%
X11500000Y13560000D03*
%TO.P,U2,J3_8,GPIO18*%
%TO.N,Net-(MicroSD1-D0)*%
X11500000Y11020000D03*
%TO.P,U2,J3_9,GPIO5*%
%TO.N,Net-(MicroSD1-SCK)*%
X11500000Y8480000D03*
%TO.P,U2,J3_10,GPIO10*%
%TO.N,unconnected-(U2-GPIO10-PadJ3_10)*%
X11500000Y5940000D03*
%TO.P,U2,J3_11,GPIO9*%
%TO.N,unconnected-(U2-GPIO9-PadJ3_11)*%
X11500000Y3400000D03*
%TO.P,U2,J3_12,GPIO4*%
%TO.N,unconnected-(U2-GPIO4-PadJ3_12)*%
X11500000Y860000D03*
%TO.P,U2,J3_13,GPIO0*%
%TO.N,unconnected-(U2-GPIO0-PadJ3_13)*%
X11500000Y-1680000D03*
%TO.P,U2,J3_14,GPIO2*%
%TO.N,Net-(J2-Pin_7)*%
X11500000Y-4220000D03*
%TO.P,U2,J3_15,GPIO15*%
%TO.N,Net-(J2-Pin_8)*%
X11500000Y-6760000D03*
%TO.P,U2,J3_16,GPIO13*%
%TO.N,Net-(J2-Pin_9)*%
X11500000Y-9300000D03*
%TO.P,U2,J3_17,GPIO12*%
%TO.N,Net-(J2-Pin_10)*%
X11500000Y-11840000D03*
%TD*%
D10*
%TO.P,MicroSD1,1,5V*%
%TO.N,+5V*%
X-21643000Y10410000D03*
%TO.P,MicroSD1,2,3V*%
%TO.N,unconnected-(MicroSD1-3V-Pad2)*%
X-21643000Y12950000D03*
D11*
%TO.P,MicroSD1,3,GND*%
%TO.N,GND*%
X-21643000Y15490000D03*
D10*
%TO.P,MicroSD1,4,SCK*%
%TO.N,Net-(MicroSD1-SCK)*%
X-21643000Y18030000D03*
%TO.P,MicroSD1,5,D0*%
%TO.N,Net-(MicroSD1-D0)*%
X-21643000Y20570000D03*
%TO.P,MicroSD1,6,D1*%
%TO.N,Net-(MicroSD1-D1)*%
X-21643000Y23110000D03*
%TO.P,MicroSD1,7,CS*%
%TO.N,Net-(MicroSD1-CS)*%
X-21643000Y25650000D03*
%TO.P,MicroSD1,8,CD*%
%TO.N,unconnected-(MicroSD1-CD-Pad8)*%
X-21643000Y28190000D03*
%TD*%
%TO.P,LM2596,1,3.2-40V*%
%TO.N,Net-(LM2596-3.2-40V)*%
X-26920000Y-24910000D03*
D11*
%TO.P,LM2596,2,GND*%
%TO.N,GND*%
X-26920000Y-42690000D03*
%TO.P,LM2596,3,GND*%
X13720000Y-42690000D03*
D10*
%TO.P,LM2596,4,5V*%
%TO.N,+5V*%
X13720000Y-24910000D03*
%TD*%
D16*
%TO.P,GPS1,1,3.3V*%
%TO.N,unconnected-(GPS1-3.3V-Pad1)*%
X-14973000Y60110000D03*
D17*
%TO.P,GPS1,2,EN*%
%TO.N,unconnected-(GPS1-EN-Pad2)*%
X-14973000Y57570000D03*
%TO.P,GPS1,3,VBAT*%
%TO.N,unconnected-(GPS1-VBAT-Pad3)*%
X-14973000Y55030000D03*
%TO.P,GPS1,4,FIX*%
%TO.N,unconnected-(GPS1-FIX-Pad4)*%
X-14973000Y52490000D03*
%TO.P,GPS1,5,TX*%
%TO.N,Net-(GPS1-TX)*%
X-14973000Y49950000D03*
%TO.P,GPS1,6,RX*%
%TO.N,Net-(GPS1-RX)*%
X-14973000Y47410000D03*
%TO.P,GPS1,7,GND*%
%TO.N,GND*%
X-14973000Y44870000D03*
%TO.P,GPS1,8,VIN*%
%TO.N,+5V*%
X-14973000Y42330000D03*
%TO.P,GPS1,9,PPS*%
%TO.N,unconnected-(GPS1-PPS-Pad9)*%
X-14973000Y39790000D03*
D18*
%TO.P,GPS1,SH1,SHIELD*%
%TO.N,Net-(GPS1-SHIELD-PadSH1)*%
X14745000Y60110000D03*
%TO.P,GPS1,SH2,SHIELD*%
X14745000Y39790000D03*
%TD*%
D19*
%TO.P,U1,1,D0*%
%TO.N,unconnected-(U1-D0-Pad1)*%
X-46540000Y-15240000D03*
D20*
%TO.P,U1,2,D1*%
%TO.N,unconnected-(U1-D1-Pad2)*%
X-44000000Y-15240000D03*
%TO.P,U1,3,D2*%
%TO.N,unconnected-(U1-D2-Pad3)*%
X-41460000Y-15240000D03*
%TO.P,U1,4,D3*%
%TO.N,unconnected-(U1-D3-Pad4)*%
X-38920000Y-15240000D03*
%TO.P,U1,5,D4*%
%TO.N,unconnected-(U1-D4-Pad5)*%
X-36380000Y-15240000D03*
%TO.P,U1,6,D5*%
%TO.N,unconnected-(U1-D5-Pad6)*%
X-33840000Y-15240000D03*
%TO.P,U1,7,TX/D6*%
%TO.N,Net-(U1-TX{slash}D6)*%
X-31300000Y-15240000D03*
%TO.P,U1,8,RX/D7*%
%TO.N,Net-(U1-RX{slash}D7)*%
X-31300000Y0D03*
%TO.P,U1,9,D8*%
%TO.N,unconnected-(U1-D8-Pad9)*%
X-33840000Y0D03*
%TO.P,U1,10,D9*%
%TO.N,unconnected-(U1-D9-Pad10)*%
X-36380000Y0D03*
%TO.P,U1,11,D10*%
%TO.N,unconnected-(U1-D10-Pad11)*%
X-38920000Y0D03*
%TO.P,U1,12,3V3*%
%TO.N,unconnected-(U1-3V3-Pad12)*%
X-41460000Y0D03*
%TO.P,U1,13,GND*%
%TO.N,GND*%
X-44000000Y0D03*
%TO.P,U1,14,5V*%
%TO.N,+5V*%
X-46540000Y0D03*
%TD*%
D21*
%TO.P,J2,1,Pin_1*%
%TO.N,+5V*%
X55000000Y11430000D03*
D22*
%TO.P,J2,2,Pin_2*%
X55000000Y8890000D03*
%TO.P,J2,3,Pin_3*%
%TO.N,+3.3V*%
X55000000Y6350000D03*
%TO.P,J2,4,Pin_4*%
%TO.N,GND*%
X55000000Y3810000D03*
%TO.P,J2,5,Pin_5*%
%TO.N,Net-(J2-Pin_5)*%
X55000000Y1270000D03*
%TO.P,J2,6,Pin_6*%
%TO.N,Net-(J2-Pin_6)*%
X55000000Y-1270000D03*
%TO.P,J2,7,Pin_7*%
%TO.N,Net-(J2-Pin_7)*%
X55000000Y-3810000D03*
%TO.P,J2,8,Pin_8*%
%TO.N,Net-(J2-Pin_8)*%
X55000000Y-6350000D03*
%TO.P,J2,9,Pin_9*%
%TO.N,Net-(J2-Pin_9)*%
X55000000Y-8890000D03*
%TO.P,J2,10,Pin_10*%
%TO.N,Net-(J2-Pin_10)*%
X55000000Y-11430000D03*
%TD*%
D23*
%TO.N,Net-(Logic_level_Converter1-LV2)*%
X21304000Y-31486000D02*
X21304000Y-29621997D01*
X-4097997Y-4220000D02*
X-11360000Y-4220000D01*
X21304000Y-29621997D02*
X-4097997Y-4220000D01*
X20150000Y-32640000D02*
X21304000Y-31486000D01*
%TO.N,Net-(Logic_level_Converter1-LV1)*%
X11980000Y-30100000D02*
X-11360000Y-6760000D01*
X20150000Y-30100000D02*
X11980000Y-30100000D01*
%TO.N,Net-(GPS1-TX)*%
X8717000Y26260000D02*
X-14973000Y49950000D01*
X11500000Y26260000D02*
X8717000Y26260000D01*
%TO.N,Net-(GPS1-RX)*%
X8717000Y23720000D02*
X-14973000Y47410000D01*
X11500000Y23720000D02*
X8717000Y23720000D01*
%TO.N,Net-(U1-TX{slash}D6)*%
X-27460000Y-15240000D02*
X-31300000Y-15240000D01*
X-11360000Y860000D02*
X-27460000Y-15240000D01*
%TO.N,Net-(U1-RX{slash}D7)*%
X-39300000Y-8000000D02*
X-31300000Y0D01*
X-30180000Y-20500000D02*
X-44500000Y-20500000D01*
X-44000000Y-8000000D02*
X-39300000Y-8000000D01*
X-44500000Y-20500000D02*
X-50500000Y-14500000D01*
X-50500000Y-14500000D02*
X-44000000Y-8000000D01*
X-11360000Y-1680000D02*
X-30180000Y-20500000D01*
%TO.N,Net-(LM2596-3.2-40V)*%
X-1704000Y-54516500D02*
X-1704000Y-53772366D01*
%TO.N,Net-(CAN_Trans1-CANL)*%
X-6380000Y-48880000D02*
X-11500000Y-54000000D01*
X24020000Y-48880000D02*
X-6380000Y-48880000D01*
X24020000Y-48880000D02*
X24020000Y-29010000D01*
X24020000Y-29010000D02*
X43940000Y-9090000D01*
%TO.N,Net-(CAN_Trans1-CANH)*%
X26420000Y-29150000D02*
X43940000Y-11630000D01*
X-4500000Y-50500000D02*
X-8000000Y-54000000D01*
X26420000Y-50500000D02*
X26420000Y-29150000D01*
X26420000Y-50500000D02*
X-4500000Y-50500000D01*
%TO.N,Net-(CAN_Trans1-CTX)*%
X43700000Y-16710000D02*
X43940000Y-16710000D01*
X30310000Y-30100000D02*
X43700000Y-16710000D01*
%TO.N,Net-(CAN_Trans1-CRX)*%
X28780000Y-29330000D02*
X43940000Y-14170000D01*
X30310000Y-32640000D02*
X28580000Y-30910000D01*
X28580000Y-29880000D02*
X28780000Y-29680000D01*
X28780000Y-29680000D02*
X28780000Y-29330000D01*
X28580000Y-30910000D02*
X28580000Y-29880000D01*
%TO.N,Net-(MicroSD1-D0)*%
X-21643000Y20570000D02*
X-13467000Y12394000D01*
X10126000Y12394000D02*
X11500000Y11020000D01*
X-13467000Y12394000D02*
X10126000Y12394000D01*
%TO.N,Net-(MicroSD1-SCK)*%
X-21643000Y18030000D02*
X-13467000Y9854000D01*
X-13467000Y9854000D02*
X10126000Y9854000D01*
X10126000Y9854000D02*
X11500000Y8480000D01*
%TO.N,Net-(MicroSD1-D1)*%
X-13467000Y14934000D02*
X10126000Y14934000D01*
X10126000Y14934000D02*
X11500000Y13560000D01*
X-21643000Y23110000D02*
X-13467000Y14934000D01*
%TO.N,Net-(MicroSD1-CS)*%
X-13433000Y17440000D02*
X10160000Y17440000D01*
X-21643000Y25650000D02*
X-13433000Y17440000D01*
X10160000Y17440000D02*
X11500000Y16100000D01*
%TO.N,Net-(J2-Pin_5)*%
X11500000Y21180000D02*
X35090000Y21180000D01*
X35090000Y21180000D02*
X55000000Y1270000D01*
%TO.N,Net-(J2-Pin_9)*%
X11500000Y-9300000D02*
X37770000Y-9300000D01*
X50110000Y-4000000D02*
X55000000Y-8890000D01*
X37770000Y-9300000D02*
X43070000Y-4000000D01*
X43070000Y-4000000D02*
X50110000Y-4000000D01*
%TO.N,Net-(J2-Pin_7)*%
X53000000Y-500000D02*
X53000000Y-1810000D01*
X33000000Y-4220000D02*
X33070000Y-4220000D01*
X36720000Y-500000D02*
X53000000Y-500000D01*
X11500000Y-4220000D02*
X33000000Y-4220000D01*
X53000000Y-1810000D02*
X55000000Y-3810000D01*
X33000000Y-4220000D02*
X36720000Y-500000D01*
%TO.N,Net-(J2-Pin_10)*%
X38660000Y-11840000D02*
X44000000Y-6500000D01*
X11500000Y-11840000D02*
X38660000Y-11840000D01*
X44000000Y-6500000D02*
X50070000Y-6500000D01*
X50070000Y-6500000D02*
X55000000Y-11430000D01*
%TO.N,Net-(J2-Pin_6)*%
X11500000Y18640000D02*
X35090000Y18640000D01*
X35090000Y18640000D02*
X55000000Y-1270000D01*
%TO.N,Net-(J2-Pin_8)*%
X38700000Y-2500000D02*
X52000000Y-2500000D01*
X52000000Y-3350000D02*
X55000000Y-6350000D01*
X34440000Y-6760000D02*
X38700000Y-2500000D01*
X52000000Y-2500000D02*
X52000000Y-3350000D01*
X11500000Y-6760000D02*
X34440000Y-6760000D01*
%TD*%
M02*
