%TF.GenerationSoftware,KiCad,Pcbnew,9.0.7*%
%TF.CreationDate,2026-04-20T12:04:54+02:00*%
%TF.ProjectId,Sailowtech,5361696c-6f77-4746-9563-682e6b696361,rev?*%
%TF.SameCoordinates,Original*%
%TF.FileFunction,Soldermask,Top*%
%TF.FilePolarity,Negative*%
%FSLAX46Y46*%
G04 Gerber Fmt 4.6, Leading zero omitted, Abs format (unit mm)*
G04 Created by KiCad (PCBNEW 9.0.7) date 2026-04-20 12:04:54*
%MOMM*%
%LPD*%
G01*
G04 APERTURE LIST*
G04 Aperture macros list*
%AMRoundRect*
0 Rectangle with rounded corners*
0 $1 Rounding radius*
0 $2 $3 $4 $5 $6 $7 $8 $9 X,Y pos of 4 corners*
0 Add a 4 corners polygon primitive as box body*
4,1,4,$2,$3,$4,$5,$6,$7,$8,$9,$2,$3,0*
0 Add four circle primitives for the rounded corners*
1,1,$1+$1,$2,$3*
1,1,$1+$1,$4,$5*
1,1,$1+$1,$6,$7*
1,1,$1+$1,$8,$9*
0 Add four rect primitives between the rounded corners*
20,1,$1+$1,$2,$3,$4,$5,0*
20,1,$1+$1,$4,$5,$6,$7,0*
20,1,$1+$1,$6,$7,$8,$9,0*
20,1,$1+$1,$8,$9,$2,$3,0*%
G04 Aperture macros list end*
%ADD10C,1.500000*%
%ADD11R,1.500000X1.500000*%
%ADD12RoundRect,0.250000X-0.650000X-1.550000X0.650000X-1.550000X0.650000X1.550000X-0.650000X1.550000X0*%
%ADD13O,1.800000X3.600000*%
%ADD14RoundRect,0.102000X-0.762000X-0.762000X0.762000X-0.762000X0.762000X0.762000X-0.762000X0.762000X0*%
%ADD15C,1.728000*%
%ADD16RoundRect,0.102000X-0.889000X0.889000X-0.889000X-0.889000X0.889000X-0.889000X0.889000X0.889000X0*%
%ADD17C,1.982000*%
%ADD18C,3.404000*%
%ADD19RoundRect,0.102000X0.800000X-0.800000X0.800000X0.800000X-0.800000X0.800000X-0.800000X-0.800000X0*%
%ADD20C,1.804000*%
%ADD21R,1.700000X1.700000*%
%ADD22C,1.700000*%
G04 APERTURE END LIST*
D10*
%TO.C,CAN_Trans1*%
X43940000Y-9090000D03*
X43940000Y-11630000D03*
X43940000Y-14170000D03*
X43940000Y-16710000D03*
D11*
X43940000Y-19250000D03*
D10*
X43940000Y-21790000D03*
%TD*%
D12*
%TO.C,NMEA1*%
X-11500000Y-54000000D03*
D13*
X-8000000Y-54000000D03*
X-4500000Y-54000000D03*
X-1000000Y-54000000D03*
%TD*%
D10*
%TO.C,Logic_level_Converter1*%
X30310000Y-42800000D03*
X30310000Y-40260000D03*
D11*
X30310000Y-37720000D03*
D10*
X30310000Y-35180000D03*
X30310000Y-32640000D03*
X30310000Y-30100000D03*
X20150000Y-42800000D03*
X20150000Y-40260000D03*
D11*
X20150000Y-37720000D03*
D10*
X20150000Y-35180000D03*
X20150000Y-32640000D03*
X20150000Y-30100000D03*
%TD*%
D12*
%TO.C,Battery1*%
X10267500Y-53642500D03*
D13*
X13767500Y-53642500D03*
%TD*%
D14*
%TO.C,U2*%
X-11360000Y28800000D03*
D15*
X-11360000Y26260000D03*
X-11360000Y23720000D03*
X-11360000Y21180000D03*
X-11360000Y18640000D03*
X-11360000Y16100000D03*
X-11360000Y13560000D03*
X-11360000Y11020000D03*
X-11360000Y8480000D03*
X-11360000Y5940000D03*
X-11360000Y3400000D03*
X-11360000Y860000D03*
X-11360000Y-1680000D03*
X-11360000Y-4220000D03*
X-11360000Y-6760000D03*
X-11360000Y-9300000D03*
X-11360000Y-11840000D03*
X11500000Y28800000D03*
X11500000Y26260000D03*
X11500000Y23720000D03*
X11500000Y21180000D03*
X11500000Y18640000D03*
X11500000Y16100000D03*
X11500000Y13560000D03*
X11500000Y11020000D03*
X11500000Y8480000D03*
X11500000Y5940000D03*
X11500000Y3400000D03*
X11500000Y860000D03*
X11500000Y-1680000D03*
X11500000Y-4220000D03*
X11500000Y-6760000D03*
X11500000Y-9300000D03*
X11500000Y-11840000D03*
%TD*%
D10*
%TO.C,MicroSD1*%
X-21643000Y10410000D03*
X-21643000Y12950000D03*
D11*
X-21643000Y15490000D03*
D10*
X-21643000Y18030000D03*
X-21643000Y20570000D03*
X-21643000Y23110000D03*
X-21643000Y25650000D03*
X-21643000Y28190000D03*
%TD*%
%TO.C,LM2596*%
X-26920000Y-24910000D03*
D11*
X-26920000Y-42690000D03*
X13720000Y-42690000D03*
D10*
X13720000Y-24910000D03*
%TD*%
D16*
%TO.C,GPS1*%
X-14973000Y60110000D03*
D17*
X-14973000Y57570000D03*
X-14973000Y55030000D03*
X-14973000Y52490000D03*
X-14973000Y49950000D03*
X-14973000Y47410000D03*
X-14973000Y44870000D03*
X-14973000Y42330000D03*
X-14973000Y39790000D03*
D18*
X14745000Y60110000D03*
X14745000Y39790000D03*
%TD*%
D19*
%TO.C,U1*%
X-46540000Y-15240000D03*
D20*
X-44000000Y-15240000D03*
X-41460000Y-15240000D03*
X-38920000Y-15240000D03*
X-36380000Y-15240000D03*
X-33840000Y-15240000D03*
X-31300000Y-15240000D03*
X-31300000Y0D03*
X-33840000Y0D03*
X-36380000Y0D03*
X-38920000Y0D03*
X-41460000Y0D03*
X-44000000Y0D03*
X-46540000Y0D03*
%TD*%
D21*
%TO.C,J2*%
X55000000Y11430000D03*
D22*
X55000000Y8890000D03*
X55000000Y6350000D03*
X55000000Y3810000D03*
X55000000Y1270000D03*
X55000000Y-1270000D03*
X55000000Y-3810000D03*
X55000000Y-6350000D03*
X55000000Y-8890000D03*
X55000000Y-11430000D03*
%TD*%
M02*
